<svg xmlns="http://www.w3.org/2000/svg" xmlns:xlink="http://www.w3.org/1999/xlink" width="500" zoomAndPan="magnify" viewBox="0 0 375 374.999991" height="500" preserveAspectRatio="xMidYMid meet" version="1.0"><defs><clipPath id="0cebaa7aee"><path d="M 0 4.394531 L 319 4.394531 L 319 362 L 0 362 Z M 0 4.394531 " clip-rule="nonzero"/></clipPath><clipPath id="a7ac37da41"><path d="M 186 190 L 370.5 190 L 370.5 374.894531 L 186 374.894531 Z M 186 190 " clip-rule="nonzero"/></clipPath></defs><g clip-path="url(#0cebaa7aee)"><path fill="#00bf63" d="M 185.296875 361.988281 L 29.257812 361.988281 C 13.125 361.988281 0 348.863281 0 332.730469 L 0 33.652344 C 0 17.519531 13.125 4.394531 29.257812 4.394531 L 289.324219 4.394531 C 305.457031 4.394531 318.582031 17.519531 318.582031 33.652344 L 318.582031 206.53125 C 318.582031 211.914062 314.210938 216.285156 308.828125 216.285156 C 303.445312 216.285156 299.074219 211.914062 299.074219 206.53125 L 299.074219 33.652344 C 299.074219 28.277344 294.699219 23.902344 289.324219 23.902344 L 29.257812 23.902344 C 23.878906 23.902344 19.503906 28.277344 19.503906 33.652344 L 19.503906 332.730469 C 19.503906 338.105469 23.878906 342.480469 29.257812 342.480469 L 185.296875 342.480469 C 190.679688 342.480469 195.050781 346.851562 195.050781 352.234375 C 195.050781 357.617188 190.679688 361.988281 185.296875 361.988281 Z M 185.296875 361.988281 " fill-opacity="1" fill-rule="nonzero"/></g><path fill="#00bf63" d="M 172.292969 218.949219 L 55.265625 218.949219 C 49.878906 218.949219 45.511719 214.582031 45.511719 209.199219 L 45.511719 59.660156 C 45.511719 54.277344 49.878906 49.90625 55.265625 49.90625 C 60.648438 49.90625 65.015625 54.277344 65.015625 59.660156 L 65.015625 199.445312 L 172.292969 199.445312 C 177.675781 199.445312 182.046875 203.8125 182.046875 209.199219 C 182.046875 214.582031 177.675781 218.949219 172.292969 218.949219 Z M 172.292969 218.949219 " fill-opacity="1" fill-rule="nonzero"/><path fill="#00bf63" d="M 55.257812 173.441406 C 52.980469 173.441406 50.695312 172.644531 48.847656 171.027344 C 44.789062 167.476562 44.375 161.320312 47.925781 157.269531 L 93.4375 105.253906 C 95.214844 103.222656 97.753906 102.019531 100.453125 101.929688 C 103.089844 101.761719 105.765625 102.867188 107.671875 104.78125 L 145.566406 142.671875 L 197.253906 79.488281 C 199 77.355469 201.566406 76.066406 204.3125 75.929688 C 207.140625 75.828125 209.75 76.824219 211.699219 78.773438 L 236.503906 103.574219 L 255.707031 79.574219 C 259.0625 75.371094 265.191406 74.675781 269.414062 78.054688 C 273.617188 81.421875 274.296875 87.554688 270.929688 91.761719 L 244.925781 124.273438 C 243.191406 126.4375 240.621094 127.757812 237.851562 127.917969 C 235.121094 128.03125 232.378906 127.035156 230.414062 125.070312 L 205.527344 100.183594 L 153.835938 163.363281 C 152.089844 165.496094 149.527344 166.785156 146.777344 166.925781 C 143.925781 167.003906 141.34375 166.023438 139.394531 164.082031 L 101.253906 125.941406 L 62.605469 170.105469 C 60.675781 172.308594 57.976562 173.441406 55.257812 173.441406 Z M 55.257812 173.441406 " fill-opacity="1" fill-rule="nonzero"/><path fill="#00bf63" d="M 159.289062 264.460938 L 55.265625 264.460938 C 49.878906 264.460938 45.511719 260.09375 45.511719 254.710938 C 45.511719 249.324219 49.878906 244.957031 55.265625 244.957031 L 159.289062 244.957031 C 164.675781 244.957031 169.042969 249.324219 169.042969 254.710938 C 169.042969 260.09375 164.675781 264.460938 159.289062 264.460938 Z M 159.289062 264.460938 " fill-opacity="1" fill-rule="nonzero"/><path fill="#00bf63" d="M 113.777344 303.472656 L 55.265625 303.472656 C 49.878906 303.472656 45.511719 299.101562 45.511719 293.71875 C 45.511719 288.335938 49.878906 283.96875 55.265625 283.96875 L 113.777344 283.96875 C 119.164062 283.96875 123.53125 288.335938 123.53125 293.71875 C 123.53125 299.101562 119.164062 303.472656 113.777344 303.472656 Z M 113.777344 303.472656 " fill-opacity="1" fill-rule="nonzero"/><g clip-path="url(#a7ac37da41)"><path fill="#00bf63" d="M 278.597656 190.996094 C 227.867188 190.996094 186.597656 232.265625 186.597656 282.996094 C 186.597656 333.71875 227.867188 374.988281 278.597656 374.988281 C 329.324219 374.988281 370.59375 333.71875 370.59375 282.996094 C 370.59375 232.265625 329.324219 190.996094 278.597656 190.996094 Z M 321.9375 322.855469 C 320.015625 324.945312 317.386719 326.003906 314.757812 326.003906 C 312.394531 326.003906 310.027344 325.15625 308.15625 323.433594 L 271.996094 290.175781 C 269.988281 288.328125 268.847656 285.726562 268.847656 282.996094 L 268.847656 234.917969 C 268.847656 229.535156 273.214844 225.167969 278.597656 225.167969 C 283.984375 225.167969 288.351562 229.535156 288.351562 234.917969 L 288.351562 278.714844 L 321.359375 309.070312 C 325.324219 312.722656 325.582031 318.886719 321.9375 322.855469 Z M 321.9375 322.855469 " fill-opacity="1" fill-rule="nonzero"/></g></svg>