<svg xmlns="http://www.w3.org/2000/svg" xmlns:xlink="http://www.w3.org/1999/xlink" width="500" zoomAndPan="magnify" viewBox="0 0 375 374.999991" height="500" preserveAspectRatio="xMidYMid meet" version="1.0"><defs><clipPath id="a35967eb68"><path d="M 3.660156 12.621094 L 371.160156 12.621094 L 371.160156 362.121094 L 3.660156 362.121094 Z M 3.660156 12.621094 " clip-rule="nonzero"/></clipPath></defs><g clip-path="url(#a35967eb68)"><path fill="#000000" d="M 191.675781 88.164062 C 198.859375 45.351562 236.085938 12.699219 280.792969 12.699219 C 330.585938 12.699219 371.160156 53.265625 371.160156 103.253906 C 371.132812 144.894531 343.03125 180.011719 304.890625 190.605469 L 304.890625 256.230469 L 3.660156 256.230469 L 3.660156 99.183594 C 3.660156 93.101562 8.578125 88.164062 14.644531 88.164062 Z M 3.660156 262.453125 L 304.890625 262.453125 L 304.890625 284.628906 C 304.890625 290.722656 299.964844 295.648438 293.898438 295.648438 L 200.253906 295.648438 L 211.035156 343.371094 L 220.988281 343.371094 C 226.132812 343.371094 230.304688 347.550781 230.304688 352.707031 C 230.304688 357.863281 226.132812 362.046875 220.988281 362.046875 L 90.59375 362.046875 C 85.449219 362.046875 81.277344 357.863281 81.277344 352.707031 C 81.277344 347.550781 85.449219 343.371094 90.59375 343.371094 L 103.125 343.371094 L 113.226562 295.648438 L 14.644531 295.648438 C 8.578125 295.648438 3.660156 290.722656 3.660156 284.628906 Z M 165.105469 284.257812 C 165.105469 279.058594 160.921875 274.902344 155.789062 274.902344 C 150.660156 274.902344 146.476562 279.058594 146.476562 284.257812 C 146.476562 289.382812 150.660156 293.574219 155.789062 293.574219 C 160.921875 293.574219 165.105469 289.382812 165.105469 284.257812 Z M 280.792969 184.820312 C 325.710938 184.820312 362.125 148.316406 362.125 103.289062 C 362.125 58.257812 325.710938 21.757812 280.792969 21.757812 C 235.875 21.757812 199.460938 58.257812 199.460938 103.289062 C 199.460938 148.316406 235.875 184.820312 280.792969 184.820312 Z M 314.425781 118.25 C 314.425781 124.25 312.28125 129.433594 307.992188 133.808594 C 303.703125 138.179688 297.484375 140.980469 289.335938 142.210938 L 289.335938 147.738281 C 289.335938 151.332031 286.429688 154.242188 282.847656 154.242188 C 279.261719 154.242188 276.355469 151.332031 276.355469 147.738281 L 276.355469 142.644531 C 270.949219 142.28125 265.832031 141.359375 261 139.878906 C 257.992188 138.957031 255.308594 137.902344 252.945312 136.714844 C 250.667969 135.570312 249.691406 132.832031 250.726562 130.503906 C 250.761719 130.421875 250.796875 130.347656 250.824219 130.277344 L 254.34375 122.359375 C 255.171875 120.488281 257.359375 119.648438 259.222656 120.480469 C 259.308594 120.519531 259.390625 120.558594 259.46875 120.601562 C 259.660156 120.703125 259.832031 120.796875 259.996094 120.878906 C 262.386719 122.089844 264.992188 123.128906 267.8125 123.996094 C 272.285156 125.367188 276.683594 126.054688 281.007812 126.054688 C 289.226562 126.054688 293.335938 123.996094 293.335938 119.875 C 293.335938 117.707031 292.164062 116.097656 289.824219 115.050781 C 287.480469 114.003906 283.710938 112.898438 278.519531 111.746094 C 272.824219 110.515625 268.066406 109.195312 264.246094 107.789062 C 260.421875 106.378906 257.140625 104.117188 254.402344 101.011719 C 251.660156 97.902344 250.292969 93.710938 250.292969 88.433594 C 250.292969 82.21875 252.527344 76.886719 256.996094 72.441406 C 261.46875 67.996094 267.921875 65.269531 276.355469 64.257812 L 276.355469 58.835938 C 276.355469 55.242188 279.261719 52.332031 282.847656 52.332031 C 286.429688 52.332031 289.335938 55.242188 289.335938 58.835938 L 289.335938 64.039062 C 293.445312 64.402344 297.394531 65.125 301.179688 66.207031 C 303.847656 66.972656 306.308594 67.898438 308.5625 68.984375 C 308.753906 69.074219 308.964844 69.183594 309.203125 69.308594 C 310.394531 69.921875 310.914062 71.347656 310.402344 72.585938 L 305.492188 84.445312 C 305.085938 85.425781 303.964844 85.890625 302.984375 85.484375 C 302.941406 85.464844 302.898438 85.445312 302.855469 85.425781 C 302.496094 85.246094 302.191406 85.09375 301.9375 84.972656 C 295.695312 82.003906 289.621094 80.519531 283.710938 80.519531 C 279.457031 80.519531 276.355469 81.152344 274.410156 82.417969 C 272.464844 83.679688 271.488281 85.328125 271.488281 87.351562 C 271.488281 89.375 272.644531 90.890625 274.949219 91.902344 C 277.257812 92.914062 280.972656 93.964844 286.089844 95.046875 C 291.859375 96.277344 296.636719 97.59375 300.421875 99.003906 C 304.207031 100.414062 307.488281 102.65625 310.261719 105.726562 C 313.039062 108.800781 314.425781 112.972656 314.425781 118.25 Z M 115.707031 180.433594 L 90.878906 166.101562 C 90.058594 159.417969 84.355469 154.242188 77.445312 154.242188 C 69.96875 154.242188 63.90625 160.296875 63.90625 167.765625 C 63.90625 175.234375 69.96875 181.292969 77.445312 181.292969 C 82.683594 181.292969 87.226562 178.316406 89.480469 173.96875 L 114.363281 188.332031 C 115.238281 194.957031 120.914062 200.074219 127.785156 200.074219 C 134.210938 200.074219 139.589844 195.601562 140.976562 189.601562 L 165.273438 187.046875 C 167.058594 192.433594 172.136719 196.316406 178.125 196.316406 C 183.40625 196.316406 187.980469 193.296875 190.210938 188.890625 L 215.203125 200.542969 C 216.464844 206.707031 221.921875 211.34375 228.46875 211.34375 C 235.945312 211.34375 242.003906 205.289062 242.003906 197.820312 C 242.003906 190.351562 235.945312 184.296875 228.46875 184.296875 C 222.839844 184.296875 218.011719 187.726562 215.96875 192.609375 L 191.574219 181.238281 C 190.800781 174.5 185.074219 169.269531 178.125 169.269531 C 171.777344 169.269531 166.449219 173.632812 164.984375 179.523438 L 140.570312 182.089844 C 138.726562 176.8125 133.699219 173.027344 127.785156 173.027344 C 122.511719 173.027344 117.945312 176.039062 115.707031 180.433594 Z M 115.707031 180.433594 " fill-opacity="1" fill-rule="nonzero"/></g></svg>