<svg xmlns="http://www.w3.org/2000/svg" xmlns:xlink="http://www.w3.org/1999/xlink" width="500" zoomAndPan="magnify" viewBox="0 0 375 374.999991" height="500" preserveAspectRatio="xMidYMid meet" version="1.0"><defs><clipPath id="5cc2966918"><path d="M 10.460938 0 L 364.460938 0 L 364.460938 375 L 10.460938 375 Z M 10.460938 0 " clip-rule="nonzero"/></clipPath></defs><g clip-path="url(#5cc2966918)"><path fill="#000000" d="M 364.296875 292.109375 C 364.296875 292.109375 364.296875 292.105469 364.296875 292.105469 L 364.296875 83.316406 C 364.296875 80.054688 361.65625 77.410156 358.402344 77.410156 L 224.304688 77.410156 L 224.304688 89.214844 L 352.503906 89.214844 L 352.503906 286.210938 L 22.347656 286.210938 L 22.347656 89.214844 L 28.132812 89.214844 L 28.132812 77.410156 L 16.449219 77.410156 C 13.195312 77.410156 10.554688 80.054688 10.554688 83.316406 L 10.554688 329.902344 C 10.554688 333.167969 13.195312 335.808594 16.449219 335.808594 L 135.296875 335.808594 L 135.296875 363.515625 L 81.863281 363.515625 C 78.605469 363.515625 75.972656 366.160156 75.972656 369.417969 C 75.972656 372.671875 78.605469 375.324219 81.863281 375.324219 L 293.007812 375.324219 C 296.261719 375.324219 298.902344 372.679688 298.902344 369.417969 C 298.902344 366.152344 296.261719 363.515625 293.007812 363.515625 L 239.578125 363.515625 L 239.578125 335.808594 L 358.402344 335.808594 C 361.65625 335.808594 364.296875 333.167969 364.296875 329.902344 L 364.296875 292.117188 C 364.296875 292.117188 364.296875 292.113281 364.296875 292.109375 Z M 22.347656 324.003906 L 22.347656 298.011719 Z M 44.953125 102.230469 L 57.503906 104.109375 C 58.914062 108.890625 60.832031 113.507812 63.222656 117.914062 L 55.675781 128.132812 C 53.941406 130.480469 54.179688 133.742188 56.246094 135.808594 L 74.164062 153.75 C 76.230469 155.808594 79.488281 156.054688 81.835938 154.316406 L 92.058594 146.765625 C 96.460938 149.15625 101.070312 151.070312 105.832031 152.488281 L 107.730469 165.058594 C 108.164062 167.945312 110.640625 170.082031 113.554688 170.082031 L 138.871094 170.082031 C 141.792969 170.082031 144.269531 167.945312 144.707031 165.058594 L 146.59375 152.488281 C 151.367188 151.070312 155.976562 149.15625 160.371094 146.765625 L 170.601562 154.316406 C 172.945312 156.054688 176.199219 155.808594 178.261719 153.75 L 196.191406 135.808594 C 198.25 133.742188 198.492188 130.480469 196.757812 128.132812 L 189.207031 117.898438 C 191.589844 113.511719 193.5 108.898438 194.914062 104.109375 L 207.476562 102.230469 C 210.367188 101.804688 212.503906 99.316406 212.503906 96.398438 L 212.503906 71.03125 C 212.503906 68.109375 210.367188 65.628906 207.484375 65.191406 L 194.914062 63.304688 C 193.492188 58.503906 191.582031 53.890625 189.207031 49.511719 L 196.757812 39.273438 C 198.492188 36.925781 198.25 33.660156 196.183594 31.59375 L 178.269531 13.660156 C 176.207031 11.59375 172.9375 11.351562 170.59375 13.09375 L 160.371094 20.660156 C 156.003906 18.273438 151.394531 16.355469 146.59375 14.929688 L 144.707031 2.351562 C 144.273438 -0.535156 141.792969 -2.675781 138.875 -2.675781 L 113.554688 -2.675781 C 110.640625 -2.675781 108.164062 -0.535156 107.730469 2.351562 L 105.835938 14.929688 C 101.039062 16.355469 96.421875 18.273438 92.058594 20.660156 L 81.835938 13.09375 C 79.492188 11.351562 76.230469 11.59375 74.167969 13.660156 L 56.246094 31.59375 C 54.1875 33.660156 53.945312 36.925781 55.675781 39.273438 L 63.222656 49.511719 C 60.847656 53.890625 58.9375 58.503906 57.519531 63.304688 L 44.945312 65.191406 C 42.0625 65.628906 39.929688 68.109375 39.929688 71.03125 L 39.929688 96.398438 C 39.929688 99.316406 42.070312 101.804688 44.953125 102.230469 Z M 126.203125 33.320312 C 153.960938 33.320312 176.542969 55.925781 176.542969 83.714844 C 176.542969 111.503906 153.960938 134.113281 126.203125 134.113281 C 98.445312 134.113281 75.882812 111.496094 75.882812 83.714844 C 75.882812 55.933594 98.457031 33.320312 126.203125 33.320312 Z M 126.203125 122.304688 C 147.457031 122.304688 164.75 104.992188 164.75 83.714844 C 164.75 62.4375 147.457031 45.125 126.203125 45.125 C 104.949219 45.125 87.675781 62.429688 87.675781 83.714844 C 87.675781 105 104.964844 122.304688 126.203125 122.304688 Z M 120.308594 59.523438 L 120.308594 54.039062 C 120.308594 50.78125 122.949219 48.136719 126.203125 48.136719 C 129.457031 48.136719 132.101562 50.78125 132.101562 54.039062 L 132.101562 59.515625 C 136.808594 61.082031 140.636719 64.453125 142.363281 68.871094 C 143.542969 71.902344 142.042969 75.320312 139.003906 76.511719 C 135.976562 77.691406 132.558594 76.191406 131.371094 73.160156 C 130.835938 71.777344 128.886719 70.382812 126.203125 70.382812 C 123.0625 70.382812 120.871094 72.324219 120.871094 74.066406 C 120.871094 76.023438 120.871094 76.546875 127.390625 77.867188 C 132.964844 79 143.347656 81.109375 143.347656 93.238281 C 143.347656 99.914062 138.660156 105.613281 132.101562 107.792969 L 132.101562 113.386719 C 132.101562 116.652344 129.460938 119.292969 126.203125 119.292969 C 122.941406 119.292969 120.308594 116.652344 120.308594 113.386719 L 120.308594 107.8125 C 116.269531 106.484375 112.882812 103.796875 110.886719 100.164062 C 109.308594 97.316406 110.347656 93.71875 113.199219 92.148438 C 116.046875 90.574219 119.632812 91.617188 121.210938 94.464844 C 121.882812 95.699219 123.695312 96.9375 126.203125 96.9375 C 129.359375 96.9375 131.558594 94.988281 131.558594 93.238281 C 131.558594 91.285156 131.558594 90.757812 125.046875 89.4375 C 119.460938 88.300781 109.085938 86.195312 109.085938 74.066406 C 109.085938 67.398438 113.761719 61.699219 120.308594 59.523438 Z M 60.167969 262.601562 L 60.167969 247.621094 L 49.777344 247.621094 C 46.515625 247.621094 43.875 244.980469 43.875 241.714844 L 43.875 188.433594 C 43.875 185.179688 46.515625 182.535156 49.777344 182.535156 L 60.167969 182.535156 L 60.167969 167.570312 C 60.167969 164.3125 62.800781 161.671875 66.058594 161.671875 C 69.320312 161.671875 71.953125 164.3125 71.953125 167.570312 L 71.953125 182.535156 L 82.34375 182.535156 C 85.605469 182.535156 88.242188 185.179688 88.242188 188.433594 L 88.242188 241.714844 C 88.242188 244.980469 85.605469 247.621094 82.34375 247.621094 L 71.953125 247.621094 L 71.953125 262.601562 C 71.953125 265.863281 69.3125 268.507812 66.058594 268.507812 C 62.808594 268.507812 60.167969 265.863281 60.167969 262.601562 Z M 118.785156 276.4375 L 118.785156 261.472656 L 108.390625 261.472656 C 105.140625 261.472656 102.5 258.828125 102.5 255.574219 L 102.5 202.292969 C 102.5 199.027344 105.140625 196.386719 108.390625 196.386719 L 118.785156 196.386719 L 118.785156 181.40625 C 118.785156 178.140625 121.425781 175.5 124.675781 175.5 C 127.929688 175.5 130.578125 178.140625 130.578125 181.40625 L 130.578125 196.386719 L 140.960938 196.386719 C 144.21875 196.386719 146.859375 199.027344 146.859375 202.292969 L 146.859375 255.574219 C 146.859375 258.828125 144.21875 261.472656 140.960938 261.472656 L 130.578125 261.472656 L 130.578125 276.4375 C 130.578125 279.691406 127.9375 282.335938 124.675781 282.335938 C 121.417969 282.335938 118.785156 279.691406 118.785156 276.4375 Z M 177.421875 262.601562 L 177.421875 247.621094 L 167.03125 247.621094 C 163.777344 247.621094 161.136719 244.980469 161.136719 241.714844 L 161.136719 188.433594 C 161.136719 185.179688 163.777344 182.535156 167.03125 182.535156 L 177.421875 182.535156 L 177.421875 167.570312 C 177.421875 164.3125 180.0625 161.671875 183.320312 161.671875 C 186.582031 161.671875 189.214844 164.3125 189.214844 167.570312 L 189.214844 182.535156 L 199.605469 182.535156 C 202.859375 182.535156 205.5 185.179688 205.5 188.433594 L 205.5 241.714844 C 205.5 244.980469 202.859375 247.621094 199.605469 247.621094 L 189.214844 247.621094 L 189.214844 262.601562 C 189.214844 265.863281 186.574219 268.507812 183.320312 268.507812 C 180.070312 268.507812 177.421875 265.863281 177.421875 262.601562 Z M 219.753906 219.035156 L 219.753906 165.730469 C 219.753906 162.46875 222.394531 159.824219 225.652344 159.824219 L 236.039062 159.824219 L 236.039062 144.867188 C 236.039062 141.605469 238.679688 138.960938 241.9375 138.960938 C 245.199219 138.960938 247.832031 141.605469 247.832031 144.867188 L 247.832031 159.824219 L 258.222656 159.824219 C 261.480469 159.824219 264.113281 162.46875 264.113281 165.730469 L 264.113281 219.035156 C 264.113281 222.292969 261.480469 224.933594 258.222656 224.933594 L 247.832031 224.933594 L 247.832031 239.898438 C 247.832031 243.15625 245.191406 245.796875 241.9375 245.796875 C 238.683594 245.796875 236.039062 243.15625 236.039062 239.898438 L 236.039062 224.933594 L 225.652344 224.933594 C 222.394531 224.933594 219.753906 222.292969 219.753906 219.035156 Z M 306.46875 178.269531 L 306.46875 193.246094 L 316.859375 193.246094 C 320.121094 193.246094 322.757812 195.890625 322.757812 199.152344 L 322.757812 252.4375 C 322.757812 255.691406 320.121094 258.335938 316.859375 258.335938 L 306.46875 258.335938 L 306.46875 273.300781 C 306.46875 276.554688 303.835938 279.199219 300.574219 279.199219 C 297.316406 279.199219 294.683594 276.554688 294.683594 273.300781 L 294.683594 258.335938 L 284.292969 258.335938 C 281.03125 258.335938 278.390625 255.691406 278.390625 252.4375 L 278.390625 199.152344 C 278.390625 195.890625 281.03125 193.246094 284.292969 193.246094 L 294.683594 193.246094 L 294.683594 178.269531 C 294.683594 175.003906 297.324219 172.363281 300.574219 172.363281 C 303.828125 172.363281 306.46875 175.003906 306.46875 178.269531 Z M 306.46875 178.269531 " fill-opacity="1" fill-rule="nonzero"/></g></svg>