<svg xmlns="http://www.w3.org/2000/svg" xmlns:xlink="http://www.w3.org/1999/xlink" width="500" zoomAndPan="magnify" viewBox="0 0 375 374.999991" height="500" preserveAspectRatio="xMidYMid meet" version="1.0"><defs><clipPath id="ff972f6910"><path d="M 2.058594 33.351562 L 373.308594 33.351562 L 373.308594 341.601562 L 2.058594 341.601562 Z M 2.058594 33.351562 " clip-rule="nonzero"/></clipPath></defs><g clip-path="url(#ff972f6910)"><path fill="#000000" d="M 92.429688 317.4375 L 36.089844 317.4375 L 36.089844 180.703125 L 92.429688 180.703125 Z M 174.710938 145.902344 L 118.375 145.902344 L 118.375 317.4375 L 174.710938 317.4375 Z M 256.996094 97.03125 L 200.65625 97.03125 L 200.65625 317.4375 L 256.996094 317.4375 Z M 339.277344 33.351562 L 282.9375 33.351562 L 282.9375 317.4375 L 339.277344 317.4375 Z M 366.332031 328.300781 L 9.035156 328.300781 C 5.351562 328.300781 2.363281 331.28125 2.363281 334.964844 C 2.363281 338.644531 5.351562 341.628906 9.035156 341.628906 L 366.332031 341.628906 C 370.019531 341.628906 373.003906 338.644531 373.003906 334.964844 C 373.003906 331.28125 370.019531 328.300781 366.332031 328.300781 Z M 366.332031 328.300781 " fill-opacity="1" fill-rule="nonzero"/></g></svg>