<svg xmlns="http://www.w3.org/2000/svg" xmlns:xlink="http://www.w3.org/1999/xlink" width="500" zoomAndPan="magnify" viewBox="0 0 375 374.999991" height="500" preserveAspectRatio="xMidYMid meet" version="1.0"><defs><clipPath id="38918d9231"><path d="M 39 11.914062 L 337 11.914062 L 337 362.914062 L 39 362.914062 Z M 39 11.914062 " clip-rule="nonzero"/></clipPath></defs><g clip-path="url(#38918d9231)"><path fill="#000000" d="M 310.691406 11.976562 L 65.121094 11.976562 C 64.289062 11.980469 63.457031 12.019531 62.625 12.105469 C 61.796875 12.1875 60.972656 12.308594 60.15625 12.472656 C 59.335938 12.636719 58.527344 12.839844 57.730469 13.082031 C 56.933594 13.324219 56.148438 13.605469 55.378906 13.925781 C 54.609375 14.246094 53.855469 14.601562 53.121094 14.996094 C 52.386719 15.390625 51.671875 15.816406 50.976562 16.28125 C 50.285156 16.742188 49.617188 17.238281 48.972656 17.769531 C 48.328125 18.296875 47.710938 18.855469 47.121094 19.445312 C 46.53125 20.035156 45.96875 20.652344 45.441406 21.292969 C 44.910156 21.9375 44.414062 22.605469 43.953125 23.300781 C 43.488281 23.992188 43.058594 24.703125 42.664062 25.441406 C 42.273438 26.175781 41.914062 26.925781 41.597656 27.695312 C 41.277344 28.464844 40.996094 29.246094 40.75 30.046875 C 40.507812 30.84375 40.304688 31.648438 40.140625 32.464844 C 39.976562 33.28125 39.855469 34.105469 39.769531 34.933594 C 39.6875 35.765625 39.644531 36.59375 39.644531 37.429688 L 39.644531 337.398438 C 39.644531 338.230469 39.6875 339.0625 39.769531 339.890625 C 39.855469 340.71875 39.976562 341.542969 40.140625 342.359375 C 40.304688 343.175781 40.507812 343.984375 40.75 344.78125 C 40.996094 345.578125 41.277344 346.359375 41.597656 347.128906 C 41.914062 347.898438 42.273438 348.652344 42.664062 349.386719 C 43.058594 350.121094 43.488281 350.832031 43.953125 351.527344 C 44.414062 352.21875 44.910156 352.886719 45.441406 353.53125 C 45.96875 354.175781 46.53125 354.789062 47.121094 355.378906 C 47.710938 355.96875 48.328125 356.527344 48.972656 357.058594 C 49.617188 357.585938 50.285156 358.082031 50.976562 358.542969 C 51.671875 359.007812 52.386719 359.4375 53.121094 359.828125 C 53.855469 360.222656 54.609375 360.578125 55.378906 360.898438 C 56.148438 361.21875 56.933594 361.5 57.730469 361.742188 C 58.527344 361.984375 59.335938 362.1875 60.15625 362.351562 C 60.972656 362.515625 61.796875 362.636719 62.625 362.722656 C 63.457031 362.804688 64.289062 362.847656 65.121094 362.847656 L 310.691406 362.847656 C 311.527344 362.847656 312.359375 362.804688 313.1875 362.722656 C 314.019531 362.636719 314.839844 362.515625 315.660156 362.351562 C 316.476562 362.1875 317.285156 361.984375 318.082031 361.742188 C 318.878906 361.5 319.664062 361.21875 320.433594 360.898438 C 321.207031 360.578125 321.957031 360.222656 322.691406 359.828125 C 323.429688 359.4375 324.144531 359.007812 324.835938 358.542969 C 325.53125 358.082031 326.199219 357.585938 326.84375 357.058594 C 327.488281 356.527344 328.105469 355.96875 328.695312 355.378906 C 329.285156 354.789062 329.84375 354.175781 330.371094 353.53125 C 330.902344 352.886719 331.398438 352.21875 331.863281 351.527344 C 332.324219 350.832031 332.753906 350.121094 333.148438 349.386719 C 333.542969 348.652344 333.898438 347.898438 334.21875 347.128906 C 334.539062 346.359375 334.820312 345.578125 335.0625 344.78125 C 335.304688 343.984375 335.507812 343.175781 335.671875 342.359375 C 335.835938 341.542969 335.960938 340.71875 336.042969 339.890625 C 336.125 339.0625 336.167969 338.230469 336.167969 337.398438 L 336.167969 37.429688 C 336.167969 36.59375 336.125 35.765625 336.042969 34.933594 C 335.960938 34.105469 335.835938 33.28125 335.671875 32.464844 C 335.507812 31.648438 335.304688 30.84375 335.0625 30.046875 C 334.820312 29.246094 334.539062 28.464844 334.21875 27.695312 C 333.898438 26.925781 333.542969 26.175781 333.148438 25.441406 C 332.753906 24.703125 332.324219 23.992188 331.863281 23.300781 C 331.398438 22.605469 330.902344 21.9375 330.371094 21.292969 C 329.84375 20.652344 329.285156 20.035156 328.695312 19.445312 C 328.105469 18.855469 327.488281 18.296875 326.84375 17.769531 C 326.199219 17.238281 325.53125 16.742188 324.835938 16.28125 C 324.144531 15.816406 323.429688 15.390625 322.695312 14.996094 C 321.957031 14.601562 321.207031 14.246094 320.433594 13.925781 C 319.664062 13.605469 318.878906 13.324219 318.082031 13.082031 C 317.285156 12.839844 316.476562 12.636719 315.660156 12.472656 C 314.839844 12.308594 314.019531 12.1875 313.1875 12.105469 C 312.359375 12.019531 311.527344 11.980469 310.691406 11.976562 Z M 224.40625 47.207031 C 224.40625 47.808594 224.378906 48.410156 224.320312 49.007812 C 224.261719 49.605469 224.175781 50.203125 224.058594 50.792969 C 223.941406 51.382812 223.796875 51.964844 223.621094 52.542969 C 223.449219 53.117188 223.246094 53.683594 223.015625 54.238281 C 222.789062 54.796875 222.53125 55.339844 222.246094 55.871094 C 221.964844 56.402344 221.65625 56.917969 221.320312 57.417969 C 220.988281 57.917969 220.628906 58.402344 220.25 58.867188 C 219.867188 59.335938 219.464844 59.78125 219.039062 60.207031 C 218.613281 60.632812 218.167969 61.035156 217.703125 61.417969 C 217.238281 61.800781 216.753906 62.160156 216.253906 62.492188 C 215.753906 62.828125 215.238281 63.136719 214.707031 63.421875 C 214.175781 63.707031 213.632812 63.964844 213.074219 64.195312 C 212.519531 64.425781 211.953125 64.628906 211.375 64.804688 C 210.800781 64.980469 210.214844 65.125 209.625 65.242188 C 209.035156 65.359375 208.441406 65.449219 207.839844 65.507812 C 207.242188 65.566406 206.640625 65.597656 206.039062 65.597656 C 205.433594 65.597656 204.835938 65.570312 204.234375 65.511719 C 203.636719 65.453125 203.039062 65.363281 202.449219 65.246094 C 201.859375 65.128906 201.273438 64.984375 200.699219 64.808594 C 200.121094 64.636719 199.554688 64.433594 199 64.203125 C 198.441406 63.972656 197.898438 63.714844 197.367188 63.433594 C 196.835938 63.148438 196.320312 62.839844 195.816406 62.507812 C 195.316406 62.171875 194.832031 61.8125 194.367188 61.433594 C 193.902344 61.050781 193.457031 60.648438 193.03125 60.222656 C 192.605469 59.796875 192.199219 59.351562 191.820312 58.886719 C 191.4375 58.421875 191.078125 57.9375 190.742188 57.4375 C 190.410156 56.9375 190.101562 56.421875 189.816406 55.890625 C 189.53125 55.359375 189.273438 54.816406 189.042969 54.261719 C 188.8125 53.703125 188.613281 53.136719 188.4375 52.5625 C 188.261719 51.984375 188.117188 51.402344 188 50.8125 C 187.882812 50.222656 187.792969 49.628906 187.734375 49.027344 C 187.675781 48.429688 187.648438 47.828125 187.648438 47.226562 C 187.648438 46.625 187.679688 46.027344 187.738281 45.425781 C 187.796875 44.828125 187.886719 44.234375 188.003906 43.644531 C 188.121094 43.054688 188.269531 42.472656 188.445312 41.894531 C 188.617188 41.320312 188.820312 40.753906 189.054688 40.199219 C 189.285156 39.640625 189.542969 39.097656 189.828125 38.570312 C 190.109375 38.039062 190.421875 37.523438 190.753906 37.023438 C 191.089844 36.523438 191.449219 36.042969 191.832031 35.578125 C 192.214844 35.113281 192.621094 34.667969 193.046875 34.242188 C 193.472656 33.816406 193.917969 33.414062 194.386719 33.03125 C 194.851562 32.652344 195.335938 32.292969 195.835938 31.960938 C 196.335938 31.625 196.855469 31.316406 197.386719 31.035156 C 197.917969 30.753906 198.460938 30.496094 199.019531 30.265625 C 199.574219 30.039062 200.140625 29.835938 200.71875 29.660156 C 201.296875 29.488281 201.878906 29.34375 202.46875 29.226562 C 203.0625 29.109375 203.65625 29.023438 204.257812 28.964844 C 204.855469 28.90625 205.457031 28.878906 206.058594 28.878906 C 206.660156 28.882812 207.257812 28.910156 207.855469 28.972656 C 208.453125 29.03125 209.046875 29.121094 209.636719 29.238281 C 210.222656 29.355469 210.804688 29.503906 211.378906 29.675781 C 211.953125 29.851562 212.519531 30.054688 213.074219 30.285156 C 213.628906 30.515625 214.171875 30.773438 214.699219 31.054688 C 215.230469 31.339844 215.742188 31.648438 216.242188 31.980469 C 216.742188 32.3125 217.222656 32.671875 217.6875 33.050781 C 218.152344 33.433594 218.597656 33.835938 219.019531 34.257812 C 219.445312 34.683594 219.847656 35.125 220.230469 35.589844 C 220.609375 36.054688 220.96875 36.535156 221.300781 37.035156 C 221.636719 37.53125 221.945312 38.046875 222.226562 38.574219 C 222.511719 39.105469 222.769531 39.644531 223 40.199219 C 223.230469 40.753906 223.433594 41.316406 223.605469 41.890625 C 223.78125 42.464844 223.929688 43.046875 224.046875 43.632812 C 224.164062 44.222656 224.253906 44.816406 224.3125 45.410156 C 224.375 46.007812 224.402344 46.605469 224.40625 47.207031 Z M 168.070312 47.207031 C 168.070312 47.808594 168.042969 48.410156 167.984375 49.007812 C 167.925781 49.605469 167.839844 50.203125 167.722656 50.792969 C 167.605469 51.382812 167.460938 51.964844 167.285156 52.542969 C 167.113281 53.117188 166.910156 53.683594 166.679688 54.238281 C 166.449219 54.796875 166.195312 55.339844 165.910156 55.871094 C 165.628906 56.402344 165.320312 56.917969 164.984375 57.417969 C 164.652344 57.917969 164.292969 58.402344 163.914062 58.867188 C 163.53125 59.335938 163.128906 59.78125 162.703125 60.207031 C 162.277344 60.632812 161.832031 61.035156 161.367188 61.417969 C 160.902344 61.800781 160.417969 62.160156 159.917969 62.492188 C 159.417969 62.828125 158.902344 63.136719 158.371094 63.421875 C 157.839844 63.707031 157.296875 63.964844 156.738281 64.195312 C 156.183594 64.425781 155.617188 64.628906 155.039062 64.804688 C 154.464844 64.980469 153.878906 65.125 153.289062 65.242188 C 152.699219 65.359375 152.105469 65.449219 151.503906 65.507812 C 150.90625 65.570312 150.304688 65.597656 149.703125 65.597656 C 149.097656 65.597656 148.5 65.570312 147.898438 65.511719 C 147.300781 65.453125 146.703125 65.363281 146.113281 65.246094 C 145.523438 65.128906 144.9375 64.984375 144.363281 64.808594 C 143.785156 64.636719 143.21875 64.433594 142.664062 64.203125 C 142.105469 63.972656 141.5625 63.714844 141.03125 63.433594 C 140.5 63.148438 139.984375 62.839844 139.480469 62.507812 C 138.980469 62.171875 138.496094 61.8125 138.03125 61.433594 C 137.566406 61.050781 137.121094 60.648438 136.695312 60.222656 C 136.269531 59.796875 135.863281 59.351562 135.484375 58.886719 C 135.101562 58.421875 134.742188 57.9375 134.40625 57.4375 C 134.074219 56.9375 133.765625 56.421875 133.480469 55.890625 C 133.195312 55.359375 132.9375 54.816406 132.707031 54.261719 C 132.476562 53.703125 132.277344 53.136719 132.101562 52.5625 C 131.925781 51.984375 131.78125 51.402344 131.664062 50.8125 C 131.546875 50.222656 131.457031 49.628906 131.398438 49.027344 C 131.339844 48.429688 131.3125 47.828125 131.3125 47.226562 C 131.3125 46.625 131.34375 46.027344 131.402344 45.425781 C 131.460938 44.828125 131.550781 44.234375 131.667969 43.644531 C 131.785156 43.054688 131.933594 42.472656 132.109375 41.894531 C 132.28125 41.320312 132.484375 40.753906 132.71875 40.199219 C 132.949219 39.640625 133.207031 39.097656 133.492188 38.570312 C 133.773438 38.039062 134.085938 37.523438 134.417969 37.023438 C 134.753906 36.523438 135.113281 36.042969 135.496094 35.578125 C 135.878906 35.113281 136.285156 34.667969 136.710938 34.242188 C 137.136719 33.816406 137.582031 33.414062 138.050781 33.03125 C 138.515625 32.652344 139 32.292969 139.5 31.960938 C 140 31.625 140.519531 31.316406 141.050781 31.035156 C 141.582031 30.753906 142.125 30.496094 142.683594 30.265625 C 143.238281 30.039062 143.804688 29.835938 144.382812 29.660156 C 144.960938 29.488281 145.542969 29.34375 146.132812 29.226562 C 146.726562 29.109375 147.320312 29.023438 147.921875 28.964844 C 148.519531 28.90625 149.121094 28.878906 149.722656 28.878906 C 150.324219 28.882812 150.921875 28.910156 151.519531 28.972656 C 152.117188 29.03125 152.710938 29.121094 153.300781 29.238281 C 153.886719 29.355469 154.46875 29.503906 155.042969 29.675781 C 155.617188 29.851562 156.183594 30.054688 156.738281 30.285156 C 157.292969 30.515625 157.835938 30.773438 158.363281 31.054688 C 158.894531 31.339844 159.40625 31.648438 159.90625 31.980469 C 160.40625 32.3125 160.886719 32.671875 161.351562 33.050781 C 161.816406 33.433594 162.261719 33.835938 162.683594 34.257812 C 163.109375 34.683594 163.511719 35.125 163.894531 35.589844 C 164.273438 36.054688 164.632812 36.535156 164.964844 37.035156 C 165.300781 37.53125 165.609375 38.046875 165.890625 38.574219 C 166.175781 39.105469 166.433594 39.644531 166.664062 40.199219 C 166.894531 40.753906 167.097656 41.316406 167.269531 41.890625 C 167.445312 42.464844 167.59375 43.046875 167.710938 43.632812 C 167.828125 44.222656 167.917969 44.816406 167.976562 45.410156 C 168.039062 46.007812 168.066406 46.605469 168.070312 47.207031 Z M 93.386719 28.878906 C 93.988281 28.878906 94.589844 28.910156 95.1875 28.972656 C 95.789062 29.03125 96.382812 29.121094 96.972656 29.238281 C 97.5625 29.355469 98.144531 29.503906 98.722656 29.679688 C 99.296875 29.855469 99.863281 30.058594 100.417969 30.289062 C 100.972656 30.519531 101.515625 30.777344 102.046875 31.0625 C 102.578125 31.347656 103.09375 31.65625 103.59375 31.992188 C 104.09375 32.328125 104.574219 32.683594 105.039062 33.066406 C 105.503906 33.449219 105.949219 33.855469 106.375 34.28125 C 106.796875 34.707031 107.203125 35.152344 107.582031 35.617188 C 107.964844 36.082031 108.320312 36.566406 108.652344 37.066406 C 108.988281 37.566406 109.296875 38.082031 109.578125 38.613281 C 109.863281 39.144531 110.117188 39.6875 110.347656 40.242188 C 110.578125 40.800781 110.777344 41.363281 110.953125 41.941406 C 111.125 42.515625 111.269531 43.097656 111.386719 43.6875 C 111.503906 44.277344 111.589844 44.875 111.648438 45.472656 C 111.707031 46.070312 111.734375 46.671875 111.734375 47.269531 C 111.734375 47.871094 111.703125 48.472656 111.640625 49.070312 C 111.582031 49.667969 111.492188 50.261719 111.375 50.851562 C 111.253906 51.441406 111.109375 52.023438 110.933594 52.597656 C 110.757812 53.175781 110.554688 53.738281 110.320312 54.292969 C 110.089844 54.851562 109.832031 55.390625 109.546875 55.921875 C 109.261719 56.453125 108.953125 56.964844 108.617188 57.464844 C 108.28125 57.964844 107.925781 58.445312 107.542969 58.910156 C 107.160156 59.375 106.753906 59.820312 106.328125 60.242188 C 105.902344 60.667969 105.453125 61.070312 104.988281 61.453125 C 104.523438 61.832031 104.039062 62.1875 103.539062 62.523438 C 103.039062 62.855469 102.519531 63.164062 101.988281 63.445312 C 101.457031 63.726562 100.914062 63.984375 100.359375 64.214844 C 99.800781 64.441406 99.234375 64.644531 98.660156 64.816406 C 98.082031 64.992188 97.5 65.136719 96.910156 65.253906 C 96.316406 65.367188 95.722656 65.457031 95.125 65.511719 C 94.523438 65.570312 93.925781 65.597656 93.324219 65.597656 C 92.71875 65.597656 92.121094 65.566406 91.519531 65.507812 C 90.921875 65.445312 90.328125 65.359375 89.738281 65.238281 C 89.148438 65.121094 88.5625 64.972656 87.988281 64.796875 C 87.414062 64.621094 86.847656 64.417969 86.292969 64.1875 C 85.734375 63.957031 85.191406 63.699219 84.664062 63.414062 C 84.132812 63.132812 83.617188 62.820312 83.117188 62.488281 C 82.617188 62.152344 82.136719 61.792969 81.671875 61.410156 C 81.207031 61.027344 80.761719 60.625 80.335938 60.199219 C 79.910156 59.773438 79.507812 59.328125 79.128906 58.859375 C 78.746094 58.394531 78.390625 57.914062 78.054688 57.414062 C 77.722656 56.910156 77.414062 56.394531 77.128906 55.863281 C 76.847656 55.335938 76.59375 54.789062 76.363281 54.234375 C 76.132812 53.679688 75.929688 53.113281 75.757812 52.539062 C 75.585938 51.960938 75.4375 51.378906 75.324219 50.789062 C 75.207031 50.199219 75.117188 49.605469 75.0625 49.007812 C 75.003906 48.40625 74.976562 47.808594 74.976562 47.207031 C 74.976562 46.605469 75.007812 46.003906 75.066406 45.40625 C 75.125 44.808594 75.214844 44.214844 75.335938 43.625 C 75.453125 43.035156 75.597656 42.453125 75.773438 41.878906 C 75.949219 41.300781 76.152344 40.738281 76.386719 40.183594 C 76.617188 39.628906 76.875 39.085938 77.160156 38.554688 C 77.445312 38.023438 77.753906 37.511719 78.089844 37.011719 C 78.425781 36.511719 78.785156 36.03125 79.167969 35.566406 C 79.550781 35.101562 79.953125 34.65625 80.378906 34.230469 C 80.804688 33.808594 81.253906 33.40625 81.71875 33.023438 C 82.183594 32.644531 82.667969 32.285156 83.167969 31.953125 C 83.671875 31.621094 84.1875 31.3125 84.71875 31.03125 C 85.25 30.746094 85.792969 30.492188 86.351562 30.261719 C 86.90625 30.035156 87.472656 29.832031 88.050781 29.660156 C 88.625 29.484375 89.210938 29.339844 89.800781 29.226562 C 90.390625 29.109375 90.984375 29.023438 91.585938 28.964844 C 92.183594 28.90625 92.785156 28.878906 93.386719 28.878906 Z M 329.6875 337.398438 C 329.6875 338.019531 329.65625 338.636719 329.59375 339.257812 C 329.53125 339.875 329.441406 340.488281 329.316406 341.097656 C 329.195312 341.707031 329.042969 342.308594 328.863281 342.902344 C 328.683594 343.496094 328.472656 344.082031 328.234375 344.652344 C 327.996094 345.226562 327.730469 345.789062 327.4375 346.335938 C 327.144531 346.882812 326.824219 347.417969 326.476562 347.933594 C 326.132812 348.449219 325.761719 348.949219 325.367188 349.425781 C 324.972656 349.90625 324.554688 350.367188 324.117188 350.804688 C 323.675781 351.246094 323.214844 351.664062 322.734375 352.058594 C 322.253906 352.449219 321.757812 352.820312 321.238281 353.164062 C 320.722656 353.511719 320.1875 353.832031 319.640625 354.125 C 319.09375 354.417969 318.53125 354.683594 317.957031 354.921875 C 317.382812 355.160156 316.796875 355.367188 316.203125 355.546875 C 315.609375 355.730469 315.007812 355.882812 314.394531 356.003906 C 313.785156 356.125 313.171875 356.214844 312.554688 356.277344 C 311.933594 356.339844 311.3125 356.371094 310.691406 356.371094 L 65.121094 356.371094 C 64.5 356.371094 63.878906 356.339844 63.261719 356.277344 C 62.640625 356.214844 62.027344 356.125 61.417969 356.003906 C 60.808594 355.882812 60.207031 355.730469 59.609375 355.546875 C 59.015625 355.367188 58.429688 355.160156 57.855469 354.921875 C 57.28125 354.683594 56.722656 354.417969 56.171875 354.125 C 55.625 353.832031 55.09375 353.511719 54.574219 353.164062 C 54.058594 352.820312 53.558594 352.449219 53.078125 352.058594 C 52.597656 351.664062 52.136719 351.246094 51.699219 350.804688 C 51.257812 350.367188 50.839844 349.90625 50.445312 349.425781 C 50.050781 348.949219 49.683594 348.449219 49.335938 347.933594 C 48.992188 347.417969 48.671875 346.882812 48.378906 346.335938 C 48.085938 345.789062 47.816406 345.226562 47.578125 344.652344 C 47.339844 344.082031 47.132812 343.496094 46.949219 342.902344 C 46.769531 342.308594 46.617188 341.707031 46.496094 341.097656 C 46.375 340.488281 46.28125 339.875 46.222656 339.257812 C 46.160156 338.636719 46.128906 338.019531 46.128906 337.398438 L 46.128906 85.542969 L 329.6875 85.542969 Z M 329.6875 337.398438 " fill-opacity="1" fill-rule="nonzero"/></g><path fill="#000000" d="M 93.386719 59.121094 C 94.167969 59.121094 94.941406 59.042969 95.703125 58.886719 C 96.46875 58.734375 97.210938 58.507812 97.933594 58.207031 C 98.652344 57.90625 99.335938 57.539062 99.984375 57.105469 C 100.632812 56.671875 101.230469 56.179688 101.78125 55.625 C 102.332031 55.074219 102.824219 54.472656 103.257812 53.824219 C 103.6875 53.175781 104.054688 52.492188 104.351562 51.773438 C 104.648438 51.050781 104.875 50.308594 105.023438 49.542969 C 105.175781 48.78125 105.25 48.007812 105.25 47.226562 C 105.25 46.449219 105.171875 45.675781 105.019531 44.914062 C 104.867188 44.148438 104.640625 43.40625 104.34375 42.6875 C 104.042969 41.964844 103.679688 41.28125 103.246094 40.636719 C 102.8125 39.988281 102.316406 39.386719 101.765625 38.835938 C 101.214844 38.285156 100.613281 37.792969 99.964844 37.359375 C 99.316406 36.925781 98.632812 36.5625 97.910156 36.261719 C 97.191406 35.964844 96.449219 35.738281 95.683594 35.585938 C 94.917969 35.433594 94.144531 35.355469 93.367188 35.355469 C 92.585938 35.355469 91.8125 35.429688 91.046875 35.582031 C 90.28125 35.734375 89.539062 35.957031 88.816406 36.253906 C 88.097656 36.550781 87.410156 36.914062 86.761719 37.347656 C 86.113281 37.78125 85.511719 38.269531 84.957031 38.820312 C 84.40625 39.371094 83.910156 39.96875 83.476562 40.617188 C 83.042969 41.265625 82.675781 41.945312 82.375 42.667969 C 82.074219 43.386719 81.847656 44.128906 81.691406 44.890625 C 81.539062 45.65625 81.460938 46.425781 81.457031 47.207031 C 81.457031 47.988281 81.535156 48.765625 81.6875 49.53125 C 81.839844 50.300781 82.066406 51.042969 82.363281 51.769531 C 82.664062 52.492188 83.03125 53.175781 83.46875 53.828125 C 83.902344 54.480469 84.398438 55.082031 84.949219 55.632812 C 85.503906 56.1875 86.105469 56.683594 86.757812 57.117188 C 87.410156 57.550781 88.097656 57.917969 88.820312 58.21875 C 89.546875 58.515625 90.292969 58.742188 91.058594 58.894531 C 91.828125 59.046875 92.605469 59.121094 93.386719 59.121094 Z M 93.386719 59.121094 " fill-opacity="1" fill-rule="nonzero"/><path fill="#000000" d="M 137.792969 47.207031 C 137.792969 47.988281 137.867188 48.761719 138.015625 49.527344 C 138.167969 50.292969 138.390625 51.035156 138.6875 51.757812 C 138.984375 52.476562 139.347656 53.164062 139.78125 53.8125 C 140.214844 54.464844 140.707031 55.066406 141.257812 55.617188 C 141.808594 56.171875 142.40625 56.667969 143.054688 57.101562 C 143.703125 57.535156 144.386719 57.90625 145.109375 58.207031 C 145.828125 58.507812 146.574219 58.734375 147.339844 58.886719 C 148.105469 59.042969 148.878906 59.121094 149.660156 59.121094 C 150.4375 59.125 151.214844 59.050781 151.980469 58.902344 C 152.746094 58.75 153.492188 58.527344 154.214844 58.230469 C 154.933594 57.933594 155.621094 57.570312 156.273438 57.136719 C 156.921875 56.707031 157.527344 56.214844 158.078125 55.664062 C 158.632812 55.113281 159.128906 54.515625 159.5625 53.867188 C 160 53.21875 160.367188 52.535156 160.667969 51.816406 C 160.96875 51.097656 161.195312 50.355469 161.351562 49.589844 C 161.507812 48.824219 161.585938 48.050781 161.585938 47.269531 C 161.589844 46.492188 161.515625 45.71875 161.363281 44.953125 C 161.214844 44.1875 160.992188 43.441406 160.695312 42.722656 C 160.398438 42 160.03125 41.3125 159.601562 40.664062 C 159.167969 40.015625 158.675781 39.414062 158.125 38.859375 C 157.574219 38.304688 156.976562 37.8125 156.328125 37.375 C 155.679688 36.941406 154.992188 36.574219 154.273438 36.273438 C 153.550781 35.972656 152.808594 35.746094 152.042969 35.589844 C 151.277344 35.4375 150.503906 35.359375 149.722656 35.355469 C 148.941406 35.355469 148.171875 35.433594 147.40625 35.585938 C 146.640625 35.738281 145.894531 35.960938 145.175781 36.261719 C 144.453125 36.558594 143.769531 36.921875 143.121094 37.355469 C 142.46875 37.785156 141.867188 38.277344 141.316406 38.828125 C 140.761719 39.375 140.265625 39.972656 139.832031 40.621094 C 139.394531 41.265625 139.027344 41.949219 138.722656 42.667969 C 138.421875 43.386719 138.195312 44.128906 138.035156 44.890625 C 137.878906 45.65625 137.800781 46.425781 137.792969 47.207031 Z M 137.792969 47.207031 " fill-opacity="1" fill-rule="nonzero"/><path fill="#000000" d="M 194.128906 47.207031 C 194.128906 47.988281 194.203125 48.761719 194.351562 49.527344 C 194.503906 50.292969 194.726562 51.035156 195.023438 51.757812 C 195.320312 52.476562 195.683594 53.164062 196.117188 53.8125 C 196.550781 54.464844 197.042969 55.066406 197.59375 55.617188 C 198.144531 56.171875 198.742188 56.667969 199.390625 57.101562 C 200.039062 57.535156 200.722656 57.90625 201.445312 58.207031 C 202.164062 58.507812 202.910156 58.734375 203.675781 58.886719 C 204.441406 59.042969 205.214844 59.121094 205.996094 59.121094 C 206.773438 59.125 207.550781 59.050781 208.316406 58.902344 C 209.082031 58.75 209.828125 58.527344 210.550781 58.230469 C 211.269531 57.933594 211.957031 57.570312 212.609375 57.136719 C 213.257812 56.707031 213.863281 56.214844 214.414062 55.664062 C 214.96875 55.113281 215.464844 54.515625 215.898438 53.867188 C 216.335938 53.21875 216.703125 52.535156 217.003906 51.816406 C 217.304688 51.097656 217.53125 50.355469 217.6875 49.589844 C 217.84375 48.824219 217.921875 48.050781 217.921875 47.269531 C 217.925781 46.492188 217.851562 45.71875 217.699219 44.953125 C 217.550781 44.1875 217.328125 43.441406 217.03125 42.722656 C 216.734375 42 216.367188 41.3125 215.9375 40.664062 C 215.503906 40.015625 215.011719 39.414062 214.460938 38.859375 C 213.910156 38.304688 213.3125 37.8125 212.664062 37.375 C 212.015625 36.941406 211.328125 36.574219 210.609375 36.273438 C 209.886719 35.972656 209.144531 35.746094 208.378906 35.589844 C 207.613281 35.4375 206.839844 35.359375 206.058594 35.355469 C 205.28125 35.359375 204.507812 35.4375 203.742188 35.589844 C 202.980469 35.746094 202.238281 35.972656 201.515625 36.269531 C 200.796875 36.570312 200.113281 36.933594 199.464844 37.367188 C 198.816406 37.796875 198.214844 38.289062 197.660156 38.835938 C 197.109375 39.386719 196.613281 39.984375 196.179688 40.628906 C 195.742188 41.273438 195.375 41.957031 195.070312 42.675781 C 194.769531 43.390625 194.539062 44.132812 194.378906 44.894531 C 194.222656 45.65625 194.136719 46.429688 194.128906 47.207031 Z M 194.128906 47.207031 " fill-opacity="1" fill-rule="nonzero"/><path fill="#000000" d="M 100.257812 177.570312 C 101.125 177.570312 101.988281 177.527344 102.851562 177.441406 C 103.714844 177.355469 104.570312 177.230469 105.417969 177.0625 C 106.269531 176.890625 107.109375 176.683594 107.9375 176.429688 C 108.765625 176.179688 109.582031 175.890625 110.382812 175.558594 C 111.179688 175.226562 111.964844 174.855469 112.726562 174.449219 C 113.492188 174.042969 114.234375 173.597656 114.953125 173.117188 C 115.675781 172.636719 116.367188 172.121094 117.039062 171.570312 C 117.707031 171.023438 118.347656 170.441406 118.960938 169.828125 C 119.574219 169.21875 120.15625 168.578125 120.707031 167.910156 C 121.253906 167.238281 121.769531 166.546875 122.25 165.824219 C 122.734375 165.105469 123.175781 164.367188 123.585938 163.601562 C 123.992188 162.839844 124.363281 162.058594 124.695312 161.257812 C 125.027344 160.457031 125.320312 159.644531 125.570312 158.816406 C 125.820312 157.988281 126.03125 157.148438 126.199219 156.300781 C 126.371094 155.453125 126.496094 154.597656 126.582031 153.738281 C 126.667969 152.875 126.707031 152.011719 126.707031 151.148438 C 126.707031 150.28125 126.667969 149.417969 126.582031 148.558594 C 126.496094 147.695312 126.371094 146.839844 126.199219 145.992188 C 126.03125 145.144531 125.820312 144.304688 125.570312 143.476562 C 125.320312 142.648438 125.027344 141.835938 124.695312 141.035156 C 124.363281 140.234375 123.992188 139.453125 123.585938 138.691406 C 123.175781 137.929688 122.734375 137.1875 122.25 136.46875 C 121.769531 135.746094 121.253906 135.054688 120.707031 134.382812 C 120.15625 133.714844 119.574219 133.074219 118.960938 132.464844 C 118.347656 131.851562 117.707031 131.269531 117.039062 130.722656 C 116.367188 130.171875 115.675781 129.660156 114.953125 129.175781 C 114.234375 128.695312 113.492188 128.253906 112.726562 127.84375 C 111.964844 127.4375 111.179688 127.066406 110.382812 126.734375 C 109.582031 126.40625 108.765625 126.113281 107.9375 125.863281 C 107.109375 125.609375 106.269531 125.402344 105.417969 125.230469 C 104.570312 125.0625 103.714844 124.9375 102.851562 124.851562 C 101.988281 124.765625 101.125 124.726562 100.257812 124.726562 C 99.394531 124.726562 98.527344 124.765625 97.667969 124.851562 C 96.804688 124.9375 95.949219 125.0625 95.097656 125.230469 C 94.25 125.402344 93.410156 125.609375 92.582031 125.863281 C 91.75 126.113281 90.9375 126.40625 90.136719 126.734375 C 89.335938 127.066406 88.554688 127.4375 87.789062 127.84375 C 87.027344 128.253906 86.285156 128.695312 85.5625 129.175781 C 84.84375 129.660156 84.148438 130.171875 83.480469 130.722656 C 82.808594 131.269531 82.167969 131.851562 81.554688 132.464844 C 80.945312 133.074219 80.363281 133.714844 79.8125 134.382812 C 79.261719 135.054688 78.746094 135.746094 78.265625 136.46875 C 77.785156 137.1875 77.339844 137.929688 76.933594 138.691406 C 76.523438 139.453125 76.152344 140.234375 75.824219 141.035156 C 75.492188 141.835938 75.199219 142.648438 74.949219 143.476562 C 74.695312 144.304688 74.484375 145.144531 74.316406 145.992188 C 74.148438 146.839844 74.019531 147.695312 73.9375 148.558594 C 73.851562 149.417969 73.808594 150.28125 73.808594 151.148438 C 73.808594 152.011719 73.851562 152.875 73.9375 153.734375 C 74.023438 154.597656 74.152344 155.453125 74.320312 156.300781 C 74.492188 157.148438 74.703125 157.984375 74.953125 158.8125 C 75.207031 159.640625 75.496094 160.453125 75.828125 161.253906 C 76.160156 162.054688 76.53125 162.835938 76.941406 163.597656 C 77.347656 164.359375 77.792969 165.101562 78.273438 165.820312 C 78.753906 166.539062 79.269531 167.234375 79.820312 167.902344 C 80.371094 168.570312 80.949219 169.210938 81.5625 169.824219 C 82.175781 170.433594 82.816406 171.015625 83.484375 171.5625 C 84.15625 172.113281 84.851562 172.628906 85.570312 173.109375 C 86.289062 173.589844 87.03125 174.035156 87.796875 174.441406 C 88.558594 174.847656 89.339844 175.21875 90.140625 175.550781 C 90.941406 175.882812 91.753906 176.171875 92.582031 176.425781 C 93.414062 176.675781 94.25 176.886719 95.101562 177.058594 C 95.949219 177.226562 96.804688 177.355469 97.667969 177.4375 C 98.527344 177.523438 99.394531 177.566406 100.257812 177.570312 Z M 100.257812 177.570312 " fill-opacity="1" fill-rule="nonzero"/><path fill="#000000" d="M 166.449219 177.570312 L 275.554688 177.570312 C 276.421875 177.570312 277.285156 177.527344 278.148438 177.441406 C 279.011719 177.355469 279.867188 177.230469 280.714844 177.0625 C 281.566406 176.890625 282.402344 176.683594 283.234375 176.429688 C 284.0625 176.179688 284.875 175.890625 285.675781 175.558594 C 286.476562 175.226562 287.257812 174.855469 288.023438 174.449219 C 288.789062 174.042969 289.53125 173.597656 290.25 173.117188 C 290.96875 172.636719 291.664062 172.121094 292.335938 171.570312 C 293.003906 171.023438 293.644531 170.441406 294.257812 169.828125 C 294.871094 169.21875 295.453125 168.578125 296 167.910156 C 296.550781 167.238281 297.066406 166.546875 297.546875 165.824219 C 298.027344 165.105469 298.472656 164.367188 298.882812 163.601562 C 299.289062 162.839844 299.660156 162.058594 299.992188 161.257812 C 300.324219 160.457031 300.613281 159.644531 300.867188 158.816406 C 301.117188 157.988281 301.328125 157.148438 301.496094 156.300781 C 301.664062 155.453125 301.792969 154.597656 301.878906 153.738281 C 301.960938 152.875 302.003906 152.011719 302.003906 151.148438 C 302.003906 150.28125 301.960938 149.417969 301.878906 148.558594 C 301.792969 147.695312 301.664062 146.839844 301.496094 145.992188 C 301.328125 145.144531 301.117188 144.304688 300.867188 143.476562 C 300.613281 142.648438 300.324219 141.835938 299.992188 141.035156 C 299.660156 140.234375 299.289062 139.453125 298.882812 138.691406 C 298.472656 137.929688 298.027344 137.1875 297.546875 136.46875 C 297.066406 135.746094 296.550781 135.054688 296 134.382812 C 295.453125 133.714844 294.871094 133.074219 294.257812 132.464844 C 293.644531 131.851562 293.003906 131.269531 292.335938 130.722656 C 291.664062 130.171875 290.96875 129.660156 290.25 129.175781 C 289.53125 128.695312 288.789062 128.253906 288.023438 127.84375 C 287.257812 127.4375 286.476562 127.066406 285.675781 126.734375 C 284.875 126.40625 284.0625 126.113281 283.234375 125.863281 C 282.402344 125.609375 281.566406 125.402344 280.714844 125.230469 C 279.867188 125.0625 279.011719 124.9375 278.148438 124.851562 C 277.285156 124.765625 276.421875 124.726562 275.554688 124.726562 L 166.449219 124.726562 C 165.582031 124.726562 164.71875 124.765625 163.855469 124.851562 C 162.996094 124.9375 162.136719 125.0625 161.289062 125.230469 C 160.4375 125.402344 159.601562 125.609375 158.769531 125.863281 C 157.941406 126.113281 157.128906 126.40625 156.328125 126.734375 C 155.527344 127.066406 154.746094 127.4375 153.980469 127.84375 C 153.214844 128.253906 152.472656 128.695312 151.753906 129.175781 C 151.035156 129.660156 150.339844 130.171875 149.667969 130.722656 C 149 131.269531 148.359375 131.851562 147.746094 132.464844 C 147.132812 133.074219 146.550781 133.714844 146.003906 134.382812 C 145.453125 135.054688 144.9375 135.746094 144.457031 136.46875 C 143.976562 137.1875 143.53125 137.929688 143.121094 138.691406 C 142.714844 139.453125 142.34375 140.234375 142.011719 141.035156 C 141.679688 141.835938 141.390625 142.648438 141.136719 143.476562 C 140.886719 144.304688 140.675781 145.144531 140.507812 145.992188 C 140.339844 146.839844 140.210938 147.695312 140.125 148.558594 C 140.042969 149.417969 140 150.28125 140 151.148438 C 140 152.011719 140.042969 152.875 140.125 153.738281 C 140.210938 154.597656 140.339844 155.453125 140.507812 156.300781 C 140.675781 157.148438 140.886719 157.988281 141.136719 158.816406 C 141.390625 159.644531 141.679688 160.457031 142.011719 161.257812 C 142.34375 162.058594 142.714844 162.839844 143.121094 163.601562 C 143.53125 164.367188 143.976562 165.105469 144.457031 165.824219 C 144.9375 166.546875 145.453125 167.238281 146.003906 167.910156 C 146.550781 168.578125 147.132812 169.21875 147.746094 169.828125 C 148.359375 170.441406 149 171.023438 149.667969 171.570312 C 150.339844 172.121094 151.035156 172.636719 151.753906 173.117188 C 152.472656 173.597656 153.214844 174.042969 153.980469 174.449219 C 154.746094 174.855469 155.527344 175.226562 156.328125 175.558594 C 157.128906 175.890625 157.941406 176.179688 158.769531 176.429688 C 159.601562 176.683594 160.4375 176.890625 161.289062 177.0625 C 162.136719 177.230469 162.996094 177.355469 163.855469 177.441406 C 164.71875 177.527344 165.582031 177.570312 166.449219 177.570312 Z M 273.804688 151.148438 C 273.804688 151.574219 273.722656 151.988281 273.558594 152.386719 C 273.394531 152.78125 273.160156 153.132812 272.855469 153.4375 C 272.550781 153.738281 272.199219 153.972656 271.804688 154.136719 C 271.40625 154.300781 270.992188 154.382812 270.5625 154.382812 L 265.183594 154.382812 C 264.753906 154.382812 264.339844 154.300781 263.941406 154.136719 C 263.546875 153.972656 263.195312 153.738281 262.890625 153.4375 C 262.585938 153.132812 262.351562 152.78125 262.1875 152.386719 C 262.023438 151.988281 261.941406 151.574219 261.941406 151.148438 C 261.941406 150.71875 262.023438 150.304688 262.1875 149.90625 C 262.351562 149.511719 262.585938 149.160156 262.890625 148.855469 C 263.195312 148.554688 263.546875 148.320312 263.941406 148.15625 C 264.339844 147.992188 264.753906 147.910156 265.183594 147.910156 L 270.5625 147.910156 C 270.992188 147.910156 271.40625 147.992188 271.804688 148.15625 C 272.199219 148.320312 272.550781 148.554688 272.855469 148.855469 C 273.160156 149.160156 273.394531 149.511719 273.558594 149.90625 C 273.722656 150.304688 273.804688 150.71875 273.804688 151.148438 Z M 176.496094 147.910156 L 243.855469 147.910156 C 244.285156 147.910156 244.699219 147.992188 245.09375 148.15625 C 245.492188 148.320312 245.84375 148.554688 246.144531 148.855469 C 246.449219 149.160156 246.683594 149.511719 246.847656 149.90625 C 247.011719 150.304688 247.09375 150.71875 247.09375 151.148438 C 247.09375 151.574219 247.011719 151.988281 246.847656 152.386719 C 246.683594 152.78125 246.449219 153.132812 246.144531 153.4375 C 245.84375 153.738281 245.492188 153.972656 245.09375 154.136719 C 244.699219 154.300781 244.285156 154.382812 243.855469 154.382812 L 176.496094 154.382812 C 176.066406 154.382812 175.652344 154.300781 175.257812 154.136719 C 174.859375 153.972656 174.507812 153.738281 174.207031 153.4375 C 173.902344 153.132812 173.667969 152.78125 173.503906 152.386719 C 173.339844 151.988281 173.253906 151.574219 173.253906 151.148438 C 173.253906 150.71875 173.339844 150.304688 173.503906 149.90625 C 173.667969 149.511719 173.902344 149.160156 174.207031 148.855469 C 174.507812 148.554688 174.859375 148.320312 175.257812 148.15625 C 175.652344 147.992188 176.066406 147.910156 176.496094 147.910156 Z M 176.496094 147.910156 " fill-opacity="1" fill-rule="nonzero"/><path fill="#000000" d="M 100.257812 250.8125 C 101.125 250.8125 101.988281 250.769531 102.851562 250.683594 C 103.714844 250.601562 104.570312 250.472656 105.417969 250.304688 C 106.269531 250.136719 107.109375 249.925781 107.9375 249.675781 C 108.765625 249.421875 109.582031 249.132812 110.382812 248.800781 C 111.179688 248.46875 111.964844 248.101562 112.726562 247.691406 C 113.492188 247.285156 114.234375 246.839844 114.953125 246.359375 C 115.675781 245.878906 116.367188 245.363281 117.039062 244.816406 C 117.707031 244.265625 118.347656 243.6875 118.960938 243.074219 C 119.574219 242.460938 120.15625 241.820312 120.707031 241.152344 C 121.253906 240.484375 121.769531 239.789062 122.25 239.070312 C 122.734375 238.351562 123.175781 237.609375 123.585938 236.847656 C 123.992188 236.082031 124.363281 235.300781 124.695312 234.5 C 125.027344 233.703125 125.320312 232.886719 125.570312 232.058594 C 125.820312 231.230469 126.03125 230.394531 126.199219 229.546875 C 126.371094 228.695312 126.496094 227.839844 126.582031 226.980469 C 126.667969 226.117188 126.707031 225.253906 126.707031 224.390625 C 126.707031 223.523438 126.667969 222.660156 126.582031 221.800781 C 126.496094 220.941406 126.371094 220.085938 126.199219 219.234375 C 126.03125 218.386719 125.820312 217.546875 125.570312 216.71875 C 125.320312 215.890625 125.027344 215.078125 124.695312 214.277344 C 124.363281 213.480469 123.992188 212.699219 123.585938 211.933594 C 123.175781 211.171875 122.734375 210.429688 122.25 209.710938 C 121.769531 208.992188 121.253906 208.296875 120.707031 207.628906 C 120.15625 206.960938 119.574219 206.320312 118.960938 205.707031 C 118.347656 205.09375 117.707031 204.515625 117.039062 203.964844 C 116.367188 203.417969 115.675781 202.902344 114.953125 202.421875 C 114.234375 201.941406 113.492188 201.496094 112.726562 201.089844 C 111.964844 200.679688 111.179688 200.3125 110.382812 199.980469 C 109.582031 199.648438 108.765625 199.355469 107.9375 199.105469 C 107.109375 198.855469 106.269531 198.644531 105.417969 198.476562 C 104.570312 198.308594 103.714844 198.179688 102.851562 198.09375 C 101.988281 198.011719 101.125 197.96875 100.257812 197.96875 C 99.394531 197.96875 98.527344 198.011719 97.667969 198.09375 C 96.804688 198.179688 95.949219 198.308594 95.097656 198.476562 C 94.25 198.644531 93.410156 198.855469 92.582031 199.105469 C 91.75 199.355469 90.9375 199.648438 90.136719 199.980469 C 89.335938 200.3125 88.554688 200.679688 87.789062 201.089844 C 87.027344 201.496094 86.285156 201.941406 85.5625 202.421875 C 84.84375 202.902344 84.148438 203.417969 83.480469 203.964844 C 82.808594 204.515625 82.167969 205.09375 81.554688 205.707031 C 80.945312 206.320312 80.363281 206.960938 79.8125 207.628906 C 79.261719 208.296875 78.746094 208.992188 78.265625 209.710938 C 77.785156 210.429688 77.339844 211.171875 76.933594 211.933594 C 76.523438 212.699219 76.152344 213.480469 75.824219 214.277344 C 75.492188 215.078125 75.199219 215.890625 74.949219 216.71875 C 74.695312 217.546875 74.484375 218.386719 74.316406 219.234375 C 74.148438 220.085938 74.019531 220.941406 73.9375 221.800781 C 73.851562 222.660156 73.808594 223.523438 73.808594 224.390625 C 73.808594 225.253906 73.851562 226.117188 73.9375 226.980469 C 74.023438 227.839844 74.152344 228.695312 74.320312 229.542969 C 74.492188 230.390625 74.703125 231.230469 74.953125 232.058594 C 75.207031 232.886719 75.496094 233.699219 75.828125 234.496094 C 76.160156 235.296875 76.53125 236.078125 76.941406 236.839844 C 77.347656 237.605469 77.792969 238.34375 78.273438 239.0625 C 78.753906 239.78125 79.269531 240.476562 79.820312 241.144531 C 80.371094 241.8125 80.949219 242.453125 81.5625 243.066406 C 82.175781 243.679688 82.816406 244.257812 83.484375 244.808594 C 84.15625 245.355469 84.851562 245.871094 85.570312 246.351562 C 86.289062 246.832031 87.03125 247.277344 87.796875 247.683594 C 88.558594 248.09375 89.339844 248.464844 90.140625 248.792969 C 90.941406 249.125 91.753906 249.417969 92.582031 249.667969 C 93.414062 249.921875 94.25 250.132812 95.101562 250.300781 C 95.949219 250.46875 96.804688 250.597656 97.667969 250.683594 C 98.527344 250.769531 99.394531 250.8125 100.257812 250.8125 Z M 100.257812 250.8125 " fill-opacity="1" fill-rule="nonzero"/><path fill="#000000" d="M 166.449219 250.8125 L 275.554688 250.8125 C 276.421875 250.8125 277.285156 250.769531 278.148438 250.683594 C 279.011719 250.601562 279.867188 250.472656 280.714844 250.304688 C 281.566406 250.136719 282.402344 249.925781 283.234375 249.675781 C 284.0625 249.421875 284.875 249.132812 285.675781 248.800781 C 286.476562 248.46875 287.257812 248.101562 288.023438 247.691406 C 288.789062 247.285156 289.53125 246.839844 290.25 246.359375 C 290.96875 245.878906 291.664062 245.363281 292.335938 244.816406 C 293.003906 244.265625 293.644531 243.6875 294.257812 243.074219 C 294.871094 242.460938 295.453125 241.820312 296 241.152344 C 296.550781 240.484375 297.066406 239.789062 297.546875 239.070312 C 298.027344 238.351562 298.472656 237.609375 298.882812 236.847656 C 299.289062 236.082031 299.660156 235.300781 299.992188 234.5 C 300.324219 233.703125 300.613281 232.886719 300.867188 232.058594 C 301.117188 231.230469 301.328125 230.394531 301.496094 229.546875 C 301.664062 228.695312 301.792969 227.839844 301.878906 226.980469 C 301.960938 226.117188 302.003906 225.253906 302.003906 224.390625 C 302.003906 223.523438 301.960938 222.660156 301.878906 221.800781 C 301.792969 220.941406 301.664062 220.085938 301.496094 219.234375 C 301.328125 218.386719 301.117188 217.546875 300.867188 216.71875 C 300.613281 215.890625 300.324219 215.078125 299.992188 214.277344 C 299.660156 213.480469 299.289062 212.699219 298.882812 211.933594 C 298.472656 211.171875 298.027344 210.429688 297.546875 209.710938 C 297.066406 208.992188 296.550781 208.296875 296 207.628906 C 295.453125 206.960938 294.871094 206.320312 294.257812 205.707031 C 293.644531 205.09375 293.003906 204.515625 292.335938 203.964844 C 291.664062 203.417969 290.96875 202.902344 290.25 202.421875 C 289.53125 201.941406 288.789062 201.496094 288.023438 201.089844 C 287.257812 200.679688 286.476562 200.3125 285.675781 199.980469 C 284.875 199.648438 284.0625 199.355469 283.234375 199.105469 C 282.402344 198.855469 281.566406 198.644531 280.714844 198.476562 C 279.867188 198.308594 279.011719 198.179688 278.148438 198.09375 C 277.285156 198.011719 276.421875 197.96875 275.554688 197.96875 L 166.449219 197.96875 C 165.582031 197.96875 164.71875 198.011719 163.855469 198.09375 C 162.996094 198.179688 162.136719 198.308594 161.289062 198.476562 C 160.4375 198.644531 159.601562 198.855469 158.769531 199.105469 C 157.941406 199.355469 157.128906 199.648438 156.328125 199.980469 C 155.527344 200.3125 154.746094 200.679688 153.980469 201.089844 C 153.214844 201.496094 152.472656 201.941406 151.753906 202.421875 C 151.035156 202.902344 150.339844 203.417969 149.667969 203.964844 C 149 204.515625 148.359375 205.09375 147.746094 205.707031 C 147.132812 206.320312 146.550781 206.960938 146.003906 207.628906 C 145.453125 208.296875 144.9375 208.992188 144.457031 209.710938 C 143.976562 210.429688 143.53125 211.171875 143.121094 211.933594 C 142.714844 212.699219 142.34375 213.480469 142.011719 214.277344 C 141.679688 215.078125 141.390625 215.890625 141.136719 216.71875 C 140.886719 217.546875 140.675781 218.386719 140.507812 219.234375 C 140.339844 220.085938 140.210938 220.941406 140.125 221.800781 C 140.042969 222.660156 140 223.523438 140 224.390625 C 140 225.253906 140.042969 226.117188 140.125 226.980469 C 140.210938 227.839844 140.339844 228.695312 140.507812 229.546875 C 140.675781 230.394531 140.886719 231.230469 141.136719 232.058594 C 141.390625 232.886719 141.679688 233.703125 142.011719 234.5 C 142.34375 235.300781 142.714844 236.082031 143.121094 236.847656 C 143.53125 237.609375 143.976562 238.351562 144.457031 239.070312 C 144.9375 239.789062 145.453125 240.484375 146.003906 241.152344 C 146.550781 241.820312 147.132812 242.460938 147.746094 243.074219 C 148.359375 243.6875 149 244.265625 149.667969 244.816406 C 150.339844 245.363281 151.035156 245.878906 151.753906 246.359375 C 152.472656 246.839844 153.214844 247.285156 153.980469 247.691406 C 154.746094 248.101562 155.527344 248.46875 156.328125 248.800781 C 157.128906 249.132812 157.941406 249.421875 158.769531 249.675781 C 159.601562 249.925781 160.4375 250.136719 161.289062 250.304688 C 162.136719 250.472656 162.996094 250.601562 163.855469 250.683594 C 164.71875 250.769531 165.582031 250.8125 166.449219 250.8125 Z M 273.804688 223.679688 C 273.804688 224.109375 273.722656 224.519531 273.558594 224.917969 C 273.394531 225.3125 273.160156 225.664062 272.855469 225.96875 C 272.550781 226.269531 272.199219 226.503906 271.804688 226.667969 C 271.40625 226.832031 270.992188 226.917969 270.5625 226.917969 L 265.183594 226.917969 C 264.753906 226.917969 264.339844 226.832031 263.941406 226.667969 C 263.546875 226.503906 263.195312 226.269531 262.890625 225.96875 C 262.585938 225.664062 262.351562 225.3125 262.1875 224.917969 C 262.023438 224.519531 261.941406 224.109375 261.941406 223.679688 C 261.941406 223.25 262.023438 222.835938 262.1875 222.4375 C 262.351562 222.042969 262.585938 221.691406 262.890625 221.386719 C 263.195312 221.085938 263.546875 220.851562 263.941406 220.6875 C 264.339844 220.523438 264.753906 220.441406 265.183594 220.441406 L 270.5625 220.441406 C 270.992188 220.441406 271.40625 220.523438 271.804688 220.6875 C 272.199219 220.851562 272.550781 221.085938 272.855469 221.386719 C 273.160156 221.691406 273.394531 222.042969 273.558594 222.4375 C 273.722656 222.835938 273.804688 223.25 273.804688 223.679688 Z M 176.496094 220.441406 L 243.855469 220.441406 C 244.285156 220.441406 244.699219 220.523438 245.09375 220.6875 C 245.492188 220.851562 245.84375 221.085938 246.144531 221.386719 C 246.449219 221.691406 246.683594 222.042969 246.847656 222.4375 C 247.011719 222.835938 247.09375 223.25 247.09375 223.679688 C 247.09375 224.109375 247.011719 224.519531 246.847656 224.917969 C 246.683594 225.3125 246.449219 225.664062 246.144531 225.96875 C 245.84375 226.269531 245.492188 226.503906 245.09375 226.667969 C 244.699219 226.832031 244.285156 226.917969 243.855469 226.917969 L 176.496094 226.917969 C 176.066406 226.917969 175.652344 226.832031 175.257812 226.667969 C 174.859375 226.503906 174.507812 226.269531 174.207031 225.96875 C 173.902344 225.664062 173.667969 225.3125 173.503906 224.917969 C 173.339844 224.519531 173.253906 224.109375 173.253906 223.679688 C 173.253906 223.25 173.339844 222.835938 173.503906 222.4375 C 173.667969 222.042969 173.902344 221.691406 174.207031 221.386719 C 174.507812 221.085938 174.859375 220.851562 175.257812 220.6875 C 175.652344 220.523438 176.066406 220.441406 176.496094 220.441406 Z M 176.496094 220.441406 " fill-opacity="1" fill-rule="nonzero"/><path fill="#000000" d="M 100.257812 323.992188 C 101.125 323.992188 101.988281 323.945312 102.847656 323.863281 C 103.710938 323.777344 104.5625 323.648438 105.414062 323.476562 C 106.261719 323.308594 107.097656 323.097656 107.925781 322.847656 C 108.753906 322.59375 109.566406 322.300781 110.367188 321.96875 C 111.164062 321.636719 111.945312 321.269531 112.707031 320.859375 C 113.472656 320.453125 114.210938 320.007812 114.929688 319.527344 C 115.648438 319.046875 116.34375 318.53125 117.011719 317.980469 C 117.679688 317.433594 118.320312 316.851562 118.929688 316.238281 C 119.539062 315.628906 120.121094 314.988281 120.667969 314.316406 C 121.214844 313.648438 121.730469 312.957031 122.210938 312.234375 C 122.691406 311.515625 123.132812 310.777344 123.539062 310.011719 C 123.945312 309.25 124.316406 308.46875 124.644531 307.671875 C 124.976562 306.871094 125.265625 306.058594 125.515625 305.230469 C 125.765625 304.402344 125.976562 303.566406 126.144531 302.71875 C 126.3125 301.871094 126.4375 301.015625 126.519531 300.15625 C 126.605469 299.296875 126.644531 298.433594 126.644531 297.570312 C 126.644531 296.707031 126.597656 295.84375 126.515625 294.984375 C 126.429688 294.121094 126.300781 293.269531 126.128906 292.421875 C 125.960938 291.574219 125.75 290.738281 125.496094 289.910156 C 125.246094 289.082031 124.953125 288.269531 124.621094 287.472656 C 124.289062 286.675781 123.917969 285.894531 123.507812 285.132812 C 123.101562 284.371094 122.65625 283.632812 122.175781 282.914062 C 121.691406 282.195312 121.175781 281.503906 120.628906 280.835938 C 120.078125 280.167969 119.496094 279.527344 118.882812 278.917969 C 118.269531 278.308594 117.628906 277.730469 116.960938 277.183594 C 116.292969 276.632812 115.597656 276.121094 114.875 275.640625 C 114.15625 275.164062 113.414062 274.71875 112.652344 274.3125 C 111.886719 273.90625 111.105469 273.539062 110.304688 273.207031 C 109.507812 272.878906 108.691406 272.589844 107.863281 272.339844 C 107.035156 272.089844 106.199219 271.878906 105.347656 271.710938 C 104.5 271.546875 103.644531 271.417969 102.785156 271.335938 C 101.921875 271.253906 101.058594 271.210938 100.195312 271.210938 C 99.328125 271.214844 98.464844 271.257812 97.605469 271.34375 C 96.742188 271.429688 95.890625 271.554688 95.039062 271.726562 C 94.191406 271.894531 93.355469 272.105469 92.527344 272.359375 C 91.699219 272.609375 90.886719 272.902344 90.085938 273.234375 C 89.289062 273.566406 88.507812 273.933594 87.746094 274.34375 C 86.980469 274.75 86.242188 275.195312 85.523438 275.675781 C 84.804688 276.160156 84.109375 276.671875 83.441406 277.222656 C 82.773438 277.773438 82.132812 278.351562 81.523438 278.964844 C 80.914062 279.578125 80.332031 280.214844 79.785156 280.886719 C 79.238281 281.554688 78.722656 282.25 78.242188 282.96875 C 77.761719 283.6875 77.320312 284.425781 76.914062 285.191406 C 76.507812 285.953125 76.136719 286.734375 75.808594 287.53125 C 75.476562 288.332031 75.1875 289.144531 74.9375 289.972656 C 74.6875 290.800781 74.476562 291.636719 74.308594 292.484375 C 74.140625 293.332031 74.015625 294.1875 73.933594 295.046875 C 73.847656 295.90625 73.808594 296.769531 73.808594 297.632812 C 73.8125 298.5 73.855469 299.359375 73.945312 300.21875 C 74.03125 301.078125 74.160156 301.933594 74.332031 302.777344 C 74.5 303.625 74.714844 304.460938 74.964844 305.289062 C 75.21875 306.113281 75.511719 306.925781 75.84375 307.722656 C 76.175781 308.519531 76.546875 309.300781 76.957031 310.0625 C 77.367188 310.824219 77.8125 311.5625 78.292969 312.28125 C 78.773438 312.996094 79.289062 313.6875 79.839844 314.355469 C 80.390625 315.023438 80.96875 315.660156 81.582031 316.273438 C 82.195312 316.882812 82.835938 317.460938 83.503906 318.007812 C 84.171875 318.554688 84.867188 319.070312 85.585938 319.546875 C 86.308594 320.027344 87.046875 320.46875 87.8125 320.878906 C 88.574219 321.285156 89.355469 321.652344 90.152344 321.984375 C 90.953125 322.3125 91.765625 322.605469 92.59375 322.855469 C 93.421875 323.105469 94.257812 323.316406 95.109375 323.484375 C 95.957031 323.652344 96.808594 323.777344 97.671875 323.863281 C 98.53125 323.949219 99.394531 323.992188 100.257812 323.992188 Z M 100.257812 323.992188 " fill-opacity="1" fill-rule="nonzero"/><path fill="#000000" d="M 166.449219 323.992188 L 275.554688 323.992188 C 276.421875 323.992188 277.285156 323.949219 278.144531 323.863281 C 279.003906 323.78125 279.859375 323.652344 280.710938 323.484375 C 281.558594 323.316406 282.394531 323.105469 283.222656 322.855469 C 284.050781 322.605469 284.867188 322.3125 285.664062 321.984375 C 286.464844 321.652344 287.246094 321.28125 288.007812 320.875 C 288.769531 320.46875 289.511719 320.023438 290.230469 319.542969 C 290.953125 319.0625 291.644531 318.550781 292.3125 318 C 292.984375 317.453125 293.625 316.875 294.234375 316.261719 C 294.847656 315.652344 295.425781 315.011719 295.976562 314.34375 C 296.523438 313.675781 297.039062 312.980469 297.519531 312.261719 C 298 311.542969 298.445312 310.804688 298.851562 310.042969 C 299.261719 309.28125 299.628906 308.5 299.960938 307.699219 C 300.292969 306.902344 300.585938 306.089844 300.835938 305.261719 C 301.085938 304.433594 301.296875 303.597656 301.464844 302.75 C 301.632812 301.902344 301.761719 301.046875 301.84375 300.1875 C 301.929688 299.328125 301.972656 298.464844 301.972656 297.601562 C 301.972656 296.738281 301.929688 295.875 301.84375 295.015625 C 301.761719 294.15625 301.632812 293.300781 301.464844 292.453125 C 301.296875 291.605469 301.085938 290.769531 300.835938 289.941406 C 300.585938 289.113281 300.292969 288.300781 299.960938 287.503906 C 299.628906 286.703125 299.261719 285.925781 298.851562 285.160156 C 298.445312 284.398438 298 283.660156 297.519531 282.941406 C 297.039062 282.222656 296.523438 281.527344 295.976562 280.859375 C 295.425781 280.191406 294.847656 279.550781 294.234375 278.941406 C 293.625 278.332031 292.984375 277.75 292.3125 277.203125 C 291.644531 276.652344 290.953125 276.140625 290.230469 275.660156 C 289.511719 275.179688 288.769531 274.734375 288.007812 274.328125 C 287.246094 273.921875 286.464844 273.550781 285.664062 273.222656 C 284.867188 272.890625 284.050781 272.597656 283.222656 272.347656 C 282.394531 272.097656 281.558594 271.886719 280.710938 271.71875 C 279.859375 271.550781 279.003906 271.425781 278.144531 271.339844 C 277.285156 271.253906 276.421875 271.210938 275.554688 271.210938 L 166.449219 271.210938 C 165.582031 271.210938 164.71875 271.253906 163.859375 271.339844 C 163 271.425781 162.144531 271.550781 161.296875 271.71875 C 160.445312 271.886719 159.609375 272.097656 158.78125 272.347656 C 157.953125 272.597656 157.136719 272.890625 156.339844 273.222656 C 155.539062 273.550781 154.757812 273.921875 153.996094 274.328125 C 153.234375 274.734375 152.492188 275.179688 151.773438 275.660156 C 151.050781 276.140625 150.359375 276.652344 149.691406 277.203125 C 149.019531 277.75 148.378906 278.332031 147.769531 278.941406 C 147.15625 279.550781 146.578125 280.191406 146.027344 280.859375 C 145.480469 281.527344 144.964844 282.222656 144.484375 282.941406 C 144.003906 283.660156 143.558594 284.398438 143.152344 285.160156 C 142.742188 285.925781 142.375 286.703125 142.042969 287.503906 C 141.710938 288.300781 141.417969 289.113281 141.167969 289.941406 C 140.917969 290.769531 140.707031 291.605469 140.539062 292.453125 C 140.371094 293.300781 140.242188 294.15625 140.160156 295.015625 C 140.074219 295.875 140.03125 296.738281 140.03125 297.601562 C 140.03125 298.464844 140.074219 299.328125 140.160156 300.1875 C 140.242188 301.046875 140.371094 301.902344 140.539062 302.75 C 140.707031 303.597656 140.917969 304.433594 141.167969 305.261719 C 141.417969 306.089844 141.710938 306.902344 142.042969 307.699219 C 142.375 308.5 142.742188 309.28125 143.152344 310.042969 C 143.558594 310.804688 144.003906 311.542969 144.484375 312.261719 C 144.964844 312.980469 145.480469 313.675781 146.027344 314.34375 C 146.578125 315.011719 147.15625 315.652344 147.769531 316.261719 C 148.378906 316.875 149.019531 317.453125 149.691406 318 C 150.359375 318.550781 151.050781 319.0625 151.773438 319.542969 C 152.492188 320.023438 153.234375 320.46875 153.996094 320.875 C 154.757812 321.28125 155.539062 321.652344 156.339844 321.984375 C 157.136719 322.3125 157.953125 322.605469 158.78125 322.855469 C 159.609375 323.105469 160.445312 323.316406 161.296875 323.484375 C 162.144531 323.652344 163 323.78125 163.859375 323.863281 C 164.71875 323.949219 165.582031 323.992188 166.449219 323.992188 Z M 273.804688 296.210938 C 273.796875 296.636719 273.710938 297.046875 273.542969 297.441406 C 273.378906 297.835938 273.144531 298.183594 272.839844 298.484375 C 272.539062 298.785156 272.191406 299.019531 271.796875 299.1875 C 271.402344 299.355469 270.992188 299.441406 270.5625 299.449219 L 265.183594 299.449219 C 264.753906 299.441406 264.34375 299.355469 263.949219 299.1875 C 263.554688 299.019531 263.207031 298.785156 262.90625 298.484375 C 262.601562 298.183594 262.367188 297.835938 262.203125 297.441406 C 262.035156 297.046875 261.949219 296.636719 261.941406 296.210938 C 261.941406 295.78125 262.023438 295.367188 262.1875 294.96875 C 262.351562 294.574219 262.585938 294.222656 262.890625 293.917969 C 263.195312 293.617188 263.546875 293.382812 263.941406 293.21875 C 264.339844 293.054688 264.753906 292.972656 265.183594 292.972656 L 270.5625 292.972656 C 270.992188 292.972656 271.40625 293.054688 271.804688 293.21875 C 272.199219 293.382812 272.550781 293.617188 272.855469 293.917969 C 273.160156 294.222656 273.394531 294.574219 273.558594 294.96875 C 273.722656 295.367188 273.804688 295.78125 273.804688 296.210938 Z M 176.496094 292.972656 L 243.855469 292.972656 C 244.285156 292.972656 244.699219 293.054688 245.09375 293.21875 C 245.492188 293.382812 245.84375 293.617188 246.144531 293.917969 C 246.449219 294.222656 246.683594 294.574219 246.847656 294.96875 C 247.011719 295.367188 247.09375 295.78125 247.09375 296.210938 C 247.09375 296.640625 247.011719 297.050781 246.847656 297.449219 C 246.683594 297.84375 246.449219 298.195312 246.144531 298.5 C 245.84375 298.800781 245.492188 299.035156 245.09375 299.199219 C 244.699219 299.367188 244.285156 299.449219 243.855469 299.449219 L 176.496094 299.449219 C 176.070312 299.441406 175.660156 299.355469 175.265625 299.1875 C 174.871094 299.019531 174.523438 298.785156 174.21875 298.484375 C 173.917969 298.183594 173.683594 297.835938 173.515625 297.441406 C 173.347656 297.046875 173.261719 296.636719 173.253906 296.210938 C 173.253906 295.78125 173.339844 295.367188 173.503906 294.96875 C 173.667969 294.574219 173.902344 294.222656 174.207031 293.917969 C 174.507812 293.617188 174.859375 293.382812 175.257812 293.21875 C 175.652344 293.054688 176.066406 292.972656 176.496094 292.972656 Z M 176.496094 292.972656 " fill-opacity="1" fill-rule="nonzero"/></svg>