<svg xmlns="http://www.w3.org/2000/svg" xmlns:xlink="http://www.w3.org/1999/xlink" width="500" zoomAndPan="magnify" viewBox="0 0 375 374.999991" height="500" preserveAspectRatio="xMidYMid meet" version="1.0"><defs><clipPath id="76dcac47b1"><path d="M 16.875 101 L 91 101 L 91 375 L 16.875 375 Z M 16.875 101 " clip-rule="nonzero"/></clipPath></defs><path fill="#ff3131" d="M 268.714844 375 L 268.714844 246.136719 L 194.871094 246.136719 L 194.871094 375 L 268.714844 375 " fill-opacity="1" fill-rule="nonzero"/><path fill="#ff3131" d="M 357.671875 375 L 357.671875 299.003906 L 283.816406 299.003906 L 283.816406 375 L 357.671875 375 " fill-opacity="1" fill-rule="nonzero"/><path fill="#ff3131" d="M 179.753906 375 L 179.753906 176.367188 L 105.910156 176.367188 L 105.910156 375 L 179.753906 375 " fill-opacity="1" fill-rule="nonzero"/><g clip-path="url(#76dcac47b1)"><path fill="#ff3131" d="M 90.808594 375 L 90.808594 101.9375 L 16.949219 101.9375 L 16.949219 375 L 90.808594 375 " fill-opacity="1" fill-rule="nonzero"/></g><path fill="#ff3131" d="M 336.929688 125.464844 L 240.472656 28.988281 L 179.328125 90.144531 L 89.183594 0 L 57.160156 32.019531 L 103.742188 78.617188 L 150.707031 125.566406 L 179.328125 154.1875 L 240.472656 93.046875 L 304.910156 157.484375 L 282.542969 179.851562 L 357.671875 179.851562 L 357.671875 104.722656 L 336.929688 125.464844 " fill-opacity="1" fill-rule="nonzero"/></svg>