<svg xmlns="http://www.w3.org/2000/svg" xmlns:xlink="http://www.w3.org/1999/xlink" width="500" zoomAndPan="magnify" viewBox="0 0 375 374.999991" height="500" preserveAspectRatio="xMidYMid meet" version="1.0"><defs><clipPath id="b8e0fbd455"><path d="M 25 185 L 84 185 L 84 355.015625 L 25 355.015625 Z M 25 185 " clip-rule="nonzero"/></clipPath><clipPath id="0787f15849"><path d="M -12.359375 13.835938 L 380.589844 20.007812 L 375.066406 371.714844 L -17.886719 365.542969 Z M -12.359375 13.835938 " clip-rule="nonzero"/></clipPath><clipPath id="016ecfe10f"><path d="M 106 152 L 164 152 L 164 355.015625 L 106 355.015625 Z M 106 152 " clip-rule="nonzero"/></clipPath><clipPath id="7ec918bc7f"><path d="M -12.359375 13.835938 L 380.589844 20.007812 L 375.066406 371.714844 L -17.886719 365.542969 Z M -12.359375 13.835938 " clip-rule="nonzero"/></clipPath><clipPath id="529461cfd1"><path d="M 186 165 L 245 165 L 245 355.015625 L 186 355.015625 Z M 186 165 " clip-rule="nonzero"/></clipPath><clipPath id="6be7a12134"><path d="M -12.359375 13.835938 L 380.589844 20.007812 L 375.066406 371.714844 L -17.886719 365.542969 Z M -12.359375 13.835938 " clip-rule="nonzero"/></clipPath><clipPath id="a1dfbaf69e"><path d="M 266 100 L 327 100 L 327 355.015625 L 266 355.015625 Z M 266 100 " clip-rule="nonzero"/></clipPath><clipPath id="acb1abc506"><path d="M -12.359375 13.835938 L 380.589844 20.007812 L 375.066406 371.714844 L -17.886719 365.542969 Z M -12.359375 13.835938 " clip-rule="nonzero"/></clipPath><clipPath id="8ae9f8e277"><path d="M 0 22 L 375 22 L 375 229 L 0 229 Z M 0 22 " clip-rule="nonzero"/></clipPath><clipPath id="6b7cfe6674"><path d="M -12.359375 13.835938 L 380.589844 20.007812 L 375.066406 371.714844 L -17.886719 365.542969 Z M -12.359375 13.835938 " clip-rule="nonzero"/></clipPath></defs><g clip-path="url(#b8e0fbd455)"><g clip-path="url(#0787f15849)"><path fill="#00bf63" d="M 25.953125 365 L 80.824219 365.859375 L 83.660156 185.347656 L 28.121094 227.117188 Z M 25.953125 365 " fill-opacity="1" fill-rule="nonzero"/></g></g><g clip-path="url(#016ecfe10f)"><g clip-path="url(#7ec918bc7f)"><path fill="#00bf63" d="M 127.996094 152 L 109.441406 165.957031 L 106.292969 366.269531 L 161.164062 367.132812 L 163.792969 199.644531 C 162.597656 198.523438 161.472656 197.3125 160.488281 195.972656 Z M 127.996094 152 " fill-opacity="1" fill-rule="nonzero"/></g></g><g clip-path="url(#529461cfd1)"><g clip-path="url(#6be7a12134)"><path fill="#00bf63" d="M 189.15625 206.214844 L 186.621094 367.53125 L 241.492188 368.394531 L 244.683594 165.285156 L 199.636719 201.132812 C 196.542969 203.617188 192.9375 205.269531 189.15625 206.214844 Z M 189.15625 206.214844 " fill-opacity="1" fill-rule="nonzero"/></g></g><g clip-path="url(#a1dfbaf69e)"><g clip-path="url(#acb1abc506)"><path fill="#00bf63" d="M 266.949219 368.785156 L 321.820312 369.644531 L 326.046875 100.527344 L 270.46875 144.75 Z M 266.949219 368.785156 " fill-opacity="1" fill-rule="nonzero"/></g></g><g clip-path="url(#8ae9f8e277)"><g clip-path="url(#6b7cfe6674)"><path fill="#00bf63" d="M 367.703125 22.425781 L 359.101562 23.597656 C 350.5625 24.75 336.582031 26.640625 328.023438 27.792969 L 319.445312 28.964844 C 310.90625 30.117188 308.210938 36.648438 313.484375 43.460938 L 318.789062 50.3125 C 319.636719 51.40625 320.617188 52.679688 321.605469 53.960938 L 184.765625 162.902344 L 143.0625 106.457031 C 141.199219 103.941406 138.40625 102.269531 135.304688 101.820312 C 132.1875 101.371094 129.054688 102.183594 126.535156 104.046875 L -15.445312 210.175781 L -1.316406 228.988281 L 131.199219 129.988281 L 173.09375 186.671875 C 174.988281 189.234375 177.84375 190.925781 181.003906 191.332031 C 184.175781 191.765625 187.359375 190.867188 189.859375 188.878906 L 335.984375 72.570312 C 336.691406 73.46875 337.367188 74.34375 337.972656 75.132812 L 343.265625 81.988281 C 348.519531 88.800781 355.519531 87.871094 358.792969 79.875 L 362.078125 71.871094 C 365.363281 63.886719 370.710938 50.820312 373.984375 42.855469 L 377.28125 34.832031 C 380.554688 26.867188 376.238281 21.273438 367.703125 22.425781 Z M 367.703125 22.425781 " fill-opacity="1" fill-rule="nonzero"/></g></g></svg>