<svg xmlns="http://www.w3.org/2000/svg" xmlns:xlink="http://www.w3.org/1999/xlink" width="500" zoomAndPan="magnify" viewBox="0 0 375 374.999991" height="500" preserveAspectRatio="xMidYMid meet" version="1.0"><defs><clipPath id="310232fda1"><path d="M 2.199219 2.199219 L 321 2.199219 L 321 360 L 2.199219 360 Z M 2.199219 2.199219 " clip-rule="nonzero"/></clipPath><clipPath id="f4d31dd441"><path d="M 188 188 L 372.699219 188 L 372.699219 372.699219 L 188 372.699219 Z M 188 188 " clip-rule="nonzero"/></clipPath></defs><g clip-path="url(#310232fda1)"><path fill="#ff3131" d="M 187.496094 359.789062 L 31.457031 359.789062 C 15.320312 359.789062 2.199219 346.664062 2.199219 330.53125 L 2.199219 31.457031 C 2.199219 15.320312 15.320312 2.199219 31.457031 2.199219 L 291.519531 2.199219 C 307.65625 2.199219 320.777344 15.320312 320.777344 31.457031 L 320.777344 204.332031 C 320.777344 209.71875 316.410156 214.085938 311.027344 214.085938 C 305.640625 214.085938 301.273438 209.71875 301.273438 204.332031 L 301.273438 31.457031 C 301.273438 26.078125 296.898438 21.703125 291.519531 21.703125 L 31.457031 21.703125 C 26.078125 21.703125 21.703125 26.078125 21.703125 31.457031 L 21.703125 330.53125 C 21.703125 335.910156 26.078125 340.285156 31.457031 340.285156 L 187.496094 340.285156 C 192.878906 340.285156 197.246094 344.652344 197.246094 350.035156 C 197.246094 355.421875 192.878906 359.789062 187.496094 359.789062 Z M 187.496094 359.789062 " fill-opacity="1" fill-rule="nonzero"/></g><path fill="#ff3131" d="M 174.492188 216.753906 L 57.460938 216.753906 C 52.078125 216.753906 47.710938 212.382812 47.710938 207 L 47.710938 57.460938 C 47.710938 52.078125 52.078125 47.710938 57.460938 47.710938 C 62.847656 47.710938 67.214844 52.078125 67.214844 57.460938 L 67.214844 197.246094 L 174.492188 197.246094 C 179.875 197.246094 184.242188 201.617188 184.242188 207 C 184.242188 212.382812 179.875 216.753906 174.492188 216.753906 Z M 174.492188 216.753906 " fill-opacity="1" fill-rule="nonzero"/><path fill="#ff3131" d="M 57.457031 171.242188 C 55.175781 171.242188 52.890625 170.449219 51.042969 168.828125 C 46.988281 165.28125 46.574219 159.121094 50.125 155.070312 L 95.636719 103.058594 C 97.414062 101.027344 99.953125 99.820312 102.652344 99.730469 C 105.285156 99.566406 107.964844 100.671875 109.871094 102.582031 L 147.761719 140.472656 L 199.453125 77.292969 C 201.199219 75.160156 203.761719 73.871094 206.511719 73.730469 C 209.335938 73.628906 211.945312 74.625 213.894531 76.574219 L 238.703125 101.375 L 257.902344 77.375 C 261.261719 73.171875 267.390625 72.480469 271.609375 75.855469 C 275.816406 79.222656 276.492188 85.355469 273.128906 89.566406 L 247.121094 122.074219 C 245.390625 124.238281 242.816406 125.558594 240.050781 125.71875 C 237.320312 125.832031 234.574219 124.835938 232.613281 122.875 L 207.726562 97.984375 L 156.035156 161.164062 C 154.289062 163.300781 151.722656 164.589844 148.976562 164.726562 C 146.125 164.804688 143.539062 163.828125 141.589844 161.882812 L 103.449219 123.742188 L 64.804688 167.910156 C 62.871094 170.113281 60.175781 171.242188 57.457031 171.242188 Z M 57.457031 171.242188 " fill-opacity="1" fill-rule="nonzero"/><path fill="#ff3131" d="M 161.488281 262.265625 L 57.460938 262.265625 C 52.078125 262.265625 47.710938 257.894531 47.710938 252.511719 C 47.710938 247.128906 52.078125 242.757812 57.460938 242.757812 L 161.488281 242.757812 C 166.871094 242.757812 171.242188 247.128906 171.242188 252.511719 C 171.242188 257.894531 166.871094 262.265625 161.488281 262.265625 Z M 161.488281 262.265625 " fill-opacity="1" fill-rule="nonzero"/><path fill="#ff3131" d="M 115.976562 301.273438 L 57.460938 301.273438 C 52.078125 301.273438 47.710938 296.90625 47.710938 291.519531 C 47.710938 286.136719 52.078125 281.769531 57.460938 281.769531 L 115.976562 281.769531 C 121.359375 281.769531 125.730469 286.136719 125.730469 291.519531 C 125.730469 296.90625 121.359375 301.273438 115.976562 301.273438 Z M 115.976562 301.273438 " fill-opacity="1" fill-rule="nonzero"/><g clip-path="url(#f4d31dd441)"><path fill="#ff3131" d="M 280.796875 188.796875 C 230.066406 188.796875 188.796875 230.066406 188.796875 280.796875 C 188.796875 331.519531 230.066406 372.792969 280.796875 372.792969 C 331.519531 372.792969 372.792969 331.519531 372.792969 280.796875 C 372.792969 230.066406 331.519531 188.796875 280.796875 188.796875 Z M 324.136719 320.65625 C 322.214844 322.746094 319.585938 323.808594 316.957031 323.808594 C 314.59375 323.808594 312.226562 322.957031 310.351562 321.234375 L 274.195312 287.976562 C 272.1875 286.128906 271.046875 283.527344 271.046875 280.796875 L 271.046875 232.722656 C 271.046875 227.335938 275.414062 222.96875 280.796875 222.96875 C 286.179688 222.96875 290.550781 227.335938 290.550781 232.722656 L 290.550781 276.519531 L 323.558594 306.875 C 327.523438 310.523438 327.78125 316.691406 324.136719 320.65625 Z M 324.136719 320.65625 " fill-opacity="1" fill-rule="nonzero"/></g></svg>