<svg xmlns="http://www.w3.org/2000/svg" xmlns:xlink="http://www.w3.org/1999/xlink" width="500" zoomAndPan="magnify" viewBox="0 0 375 374.999991" height="500" preserveAspectRatio="xMidYMid meet" version="1.0"><defs><clipPath id="f1c72f775a"><path d="M 5.089844 11.476562 L 369.589844 11.476562 L 369.589844 363.226562 L 5.089844 363.226562 Z M 5.089844 11.476562 " clip-rule="nonzero"/></clipPath></defs><g clip-path="url(#f1c72f775a)"><path fill="#000000" d="M 60.175781 142.210938 L 48.78125 142.210938 L 48.78125 121.636719 C 48.78125 118.492188 51.328125 115.933594 54.480469 115.933594 C 57.628906 115.933594 60.175781 118.492188 60.175781 121.636719 Z M 48.78125 303.945312 C 48.78125 307.089844 51.328125 309.648438 54.480469 309.648438 C 57.628906 309.648438 60.175781 307.089844 60.175781 303.945312 L 60.175781 283.371094 L 48.78125 283.371094 Z M 120.910156 169.394531 C 117.761719 169.394531 115.214844 171.949219 115.214844 175.09375 L 115.214844 195.667969 L 126.609375 195.667969 L 126.609375 175.09375 C 126.609375 171.949219 124.0625 169.394531 120.910156 169.394531 Z M 115.214844 357.402344 C 115.214844 360.546875 117.761719 363.105469 120.910156 363.105469 C 124.0625 363.105469 126.609375 360.546875 126.609375 357.402344 L 126.609375 336.828125 L 115.214844 336.828125 Z M 193.042969 138.546875 C 193.042969 135.398438 190.488281 132.84375 187.339844 132.84375 C 184.195312 132.84375 181.640625 135.398438 181.640625 138.546875 L 181.640625 159.121094 L 193.042969 159.121094 Z M 181.640625 320.851562 C 181.640625 324.003906 184.195312 326.554688 187.339844 326.554688 C 190.488281 326.554688 193.042969 324.003906 193.042969 320.851562 L 193.042969 300.285156 L 181.640625 300.285156 Z M 253.773438 101.121094 C 250.621094 101.121094 248.074219 103.675781 248.074219 106.824219 L 248.074219 127.398438 L 259.46875 127.398438 L 259.46875 106.824219 C 259.46875 103.675781 256.921875 101.121094 253.773438 101.121094 Z M 248.074219 289.128906 C 248.074219 292.28125 250.621094 294.832031 253.773438 294.832031 C 256.921875 294.832031 259.46875 292.28125 259.46875 289.128906 L 259.46875 268.554688 L 248.074219 268.554688 Z M 325.925781 159.554688 C 325.925781 156.40625 323.367188 153.851562 320.222656 153.851562 C 317.074219 153.851562 314.519531 156.40625 314.519531 159.554688 L 314.519531 180.128906 L 325.925781 180.128906 Z M 314.519531 341.859375 C 314.519531 345.015625 317.074219 347.5625 320.222656 347.5625 C 323.367188 347.5625 325.925781 345.015625 325.925781 341.859375 L 325.925781 321.285156 L 314.519531 321.285156 Z M 66.25 200.359375 L 66.820312 200.894531 L 66.820312 153.609375 L 42.136719 153.609375 L 42.136719 195.65625 L 54.480469 195.65625 C 58.886719 195.65625 63.066406 197.328125 66.25 200.359375 Z M 47.699219 229.839844 L 42.136719 229.839844 L 42.136719 271.972656 L 66.820312 271.972656 L 66.820312 247.878906 L 59 240.503906 Z M 108.570312 240.277344 L 123.128906 254.011719 L 133.253906 247.808594 L 133.253906 207.066406 L 108.570312 207.066406 Z M 120.914062 292.503906 C 116.542969 292.503906 112.386719 290.851562 109.191406 287.847656 L 108.570312 287.265625 L 108.570312 325.421875 L 133.253906 325.421875 L 133.253906 287.898438 L 129.835938 289.992188 C 127.125 291.640625 124.046875 292.503906 120.914062 292.503906 Z M 175.019531 288.878906 L 199.679688 288.878906 L 199.679688 247.226562 L 175.019531 262.328125 Z M 199.679688 170.523438 L 175.019531 170.523438 L 175.019531 222.238281 L 199.679688 207.136719 Z M 241.453125 221.648438 L 241.453125 257.15625 L 266.109375 257.15625 L 266.109375 227.050781 L 252.117188 215.117188 Z M 241.453125 181.558594 L 244.847656 179.480469 C 247.539062 177.835938 250.621094 176.96875 253.765625 176.96875 C 257.824219 176.96875 261.769531 178.417969 264.859375 181.054688 L 266.109375 182.121094 L 266.109375 138.800781 L 241.453125 138.800781 Z M 326.515625 233.613281 L 332.546875 233.613281 L 332.546875 191.535156 L 307.886719 191.535156 L 307.886719 217.726562 L 315.273438 224.023438 Z M 309.160156 263.734375 L 307.886719 262.644531 L 307.886719 309.886719 L 332.546875 309.886719 L 332.546875 267.800781 L 320.222656 267.800781 C 316.179688 267.800781 312.25 266.355469 309.160156 263.734375 Z M 363.890625 245.003906 L 322.324219 245.003906 L 307.886719 232.695312 L 296.480469 222.976562 L 277.515625 206.808594 L 266.113281 197.09375 L 257.46875 189.726562 C 255.589844 188.121094 252.898438 187.910156 250.792969 189.199219 L 241.453125 194.914062 L 230.054688 201.898438 L 211.082031 213.507812 L 199.679688 220.492188 L 175.019531 235.59375 L 163.621094 242.570312 L 144.652344 254.1875 L 133.253906 261.164062 L 121.648438 268.269531 L 108.574219 255.933594 L 97.167969 245.175781 L 78.226562 227.3125 L 66.820312 216.554688 L 58.390625 208.605469 C 57.335938 207.601562 55.933594 207.042969 54.484375 207.042969 L 10.792969 207.042969 C 7.640625 207.042969 5.089844 209.601562 5.089844 212.746094 C 5.089844 215.894531 7.640625 218.449219 10.792969 218.449219 L 52.21875 218.449219 L 66.816406 232.21875 L 78.222656 242.972656 L 97.164062 260.84375 L 108.570312 271.601562 L 117 279.550781 C 118.089844 280.578125 119.492188 281.113281 120.914062 281.113281 C 121.933594 281.113281 122.964844 280.835938 123.890625 280.273438 L 133.25 274.539062 L 144.648438 267.5625 L 163.621094 255.945312 L 175.019531 248.96875 L 199.675781 233.871094 L 211.082031 226.886719 L 230.054688 215.265625 L 241.449219 208.289062 L 253.21875 201.085938 L 266.109375 212.078125 L 277.515625 221.796875 L 296.480469 237.964844 L 307.882812 247.679688 L 316.527344 255.046875 C 317.558594 255.925781 318.867188 256.410156 320.21875 256.410156 L 363.886719 256.410156 C 367.039062 256.410156 369.589844 253.851562 369.589844 250.707031 C 369.589844 247.558594 367.042969 245.003906 363.890625 245.003906 Z M 85.910156 89.585938 C 85.910156 69.625 102.15625 53.378906 122.117188 53.378906 C 142.101562 53.378906 158.355469 69.625 158.355469 89.585938 C 158.355469 109.554688 142.101562 125.800781 122.117188 125.800781 C 102.15625 125.800781 85.910156 109.554688 85.910156 89.585938 Z M 102.25 101.007812 L 118.089844 116.847656 C 119.207031 117.964844 120.660156 118.519531 122.117188 118.519531 C 123.578125 118.519531 125.039062 117.964844 126.148438 116.855469 L 142.007812 101.007812 C 144.238281 98.785156 144.246094 95.175781 142.015625 92.949219 C 139.792969 90.71875 136.179688 90.71875 133.949219 92.941406 L 127.820312 99.0625 L 127.820312 66.363281 C 127.820312 63.210938 125.273438 60.664062 122.117188 60.664062 C 118.972656 60.664062 116.421875 63.210938 116.421875 66.363281 L 116.421875 99.054688 L 110.308594 92.949219 C 108.085938 90.71875 104.476562 90.71875 102.25 92.949219 C 100.019531 95.167969 100.019531 98.777344 102.25 101.007812 Z M 217.5625 47.753906 C 217.5625 27.777344 233.804688 11.527344 253.773438 11.527344 C 273.75 11.527344 290.003906 27.777344 290.003906 47.753906 C 290.003906 67.722656 273.75 83.96875 253.773438 83.96875 C 233.804688 83.96875 217.5625 67.722656 217.5625 47.753906 Z M 233.898438 44.402344 C 235.015625 45.511719 236.46875 46.066406 237.929688 46.066406 C 239.386719 46.066406 240.847656 45.511719 241.964844 44.402344 L 248.074219 38.292969 L 248.074219 70.984375 C 248.074219 74.132812 250.621094 76.6875 253.773438 76.6875 C 256.921875 76.6875 259.46875 74.132812 259.46875 70.984375 L 259.46875 38.28125 L 265.605469 44.402344 C 267.835938 46.632812 271.445312 46.632812 273.664062 44.402344 C 275.894531 42.175781 275.886719 38.566406 273.664062 36.335938 L 257.804688 20.496094 C 255.578125 18.269531 251.96875 18.273438 249.738281 20.496094 L 233.898438 36.335938 C 231.671875 38.566406 231.671875 42.175781 233.898438 44.402344 Z M 233.898438 44.402344 " fill-opacity="1" fill-rule="nonzero"/></g></svg>